<?xml version="1.0" standalone="no"?>
<!DOCTYPE svg PUBLIC "-//W3C//DTD SVG 1.1//EN" "http://www.w3.org/Graphics/SVG/1.1/DTD/svg11.dtd" >
<svg xmlns="http://www.w3.org/2000/svg">
<metadata></metadata>
<defs>
<font id="corporate_roundedbold" horiz-adv-x="1181" >
<font-face units-per-em="2048" ascent="1638" descent="-410" />
<missing-glyph horiz-adv-x="552" />
<glyph horiz-adv-x="0" />
<glyph unicode="&#xd;" horiz-adv-x="552" />
<glyph unicode=" "  horiz-adv-x="552" />
<glyph unicode="&#x09;" horiz-adv-x="552" />
<glyph unicode="&#xa0;" horiz-adv-x="552" />
<glyph unicode="!" horiz-adv-x="688" d="M182 135q0 66 47 113t113 47t113 -47t47 -113t-47 -113t-113 -47t-113 47t-47 113zM195 555v788q0 66 40.5 103t106.5 37q63 0 107 -37q41 -41 40 -103v-788q0 -59 -41.5 -99t-105.5 -40q-66 0 -104 39q-43 37 -43 100z" />
<glyph unicode="&#x22;" horiz-adv-x="913" d="M145 1012v348q0 55 34 89t89 34q57 0 90 -33t33 -90v-348q0 -55 -33.5 -89t-89.5 -34q-57 0 -90 33t-33 90zM520 1012v348q0 55 34 89t89 34q57 0 90 -33t33 -90v-348q0 -55 -34 -89t-89 -34q-57 0 -90 33t-33 90z" />
<glyph unicode="#" horiz-adv-x="1234" d="M0 514q0 41 24.5 69.5t73.5 28.5h205l33 234h-176q-47 0 -72 31q-27 27 -27 67q0 41 25 69.5t74 28.5h205l45 330q10 55 32.5 76.5t69.5 21.5q41 0 68.5 -23.5t27.5 -57.5l-4 -50l-41 -297h197l45 330q10 55 32.5 76.5t69.5 21.5q39 0 66.5 -23.5t27.5 -57.5l-4 -50 l-41 -297h177q45 0 73 -28q25 -31 25 -70q0 -41 -24.5 -69.5t-73.5 -28.5h-205l-33 -234h176q45 0 74 -28q25 -31 24 -70q0 -41 -24.5 -69.5t-73.5 -28.5h-205l-45 -330q-10 -55 -33.5 -76.5t-68.5 -21.5q-37 0 -65.5 23.5t-28.5 58.5l4 49l41 297h-199l-45 -330 q-10 -55 -33.5 -76.5t-68.5 -21.5q-37 0 -66 23.5t-29 58.5l4 49l41 297h-176q-47 0 -71 30q-27 27 -27 68zM502 612h196l33 234h-194z" />
<glyph unicode="$" horiz-adv-x="1105" d="M39 205q0 63 38 104t99 41q37 0 145.5 -36t163.5 -42v342q-221 63 -330.5 137t-109.5 267q0 190 124 314t316 147v63q0 43 5.5 69.5t52.5 26.5q37 0 46 -22.5t9 -73.5v-63q123 0 240.5 -51.5t117.5 -149.5q0 -63 -37.5 -107.5t-99.5 -44.5q-43 0 -92 18.5t-77.5 28 t-51.5 9.5v-273q158 -45 241 -81.5t153.5 -129t70.5 -247.5q0 -203 -136 -336t-329 -133v-66q0 -59 -12.5 -77.5t-42.5 -18.5q-39 0 -46.5 21.5t-9.5 34.5t-2 40v64q-162 0 -304 53t-142 172zM377 1055q-1 -68 108 -109v234q-51 -16 -79.5 -46t-28.5 -79zM598 281 q66 16 99.5 61t33.5 104q0 49 -35 81.5t-98 52.5v-299z" />
<glyph unicode="%" horiz-adv-x="1484" d="M63 1151q0 135 90.5 233.5t225.5 98.5q137 0 227 -98.5t90 -233.5q0 -139 -89 -234.5t-228 -95.5q-133 0 -224.5 97.5t-91.5 232.5zM272 1151q0 -51 29 -86t78 -35t77.5 35t28.5 86q0 55 -27.5 89t-78.5 34q-47 0 -77 -36t-30 -87zM285 76l6 39l14 37l680 1278 q35 66 94 65q51 0 86 -34t35 -81q0 -29 -16 -61l-690 -1288l-37 -49q-16 -18 -56 -19q-39 0 -77.5 34t-38.5 79zM786 305q0 135 90.5 233.5t225.5 98.5t225 -98.5t90 -233.5q0 -139 -89 -234.5t-226 -95.5q-133 0 -224.5 97.5t-91.5 232.5zM995 305q0 -51 29 -86t78 -35 t77.5 35t28.5 86q0 55 -27.5 89t-78.5 34q-47 0 -77 -36t-30 -87z" />
<glyph unicode="&#x26;" horiz-adv-x="1447" d="M49 418q0 143 84 254.5t225 189.5q-66 68 -100.5 132.5t-34.5 144.5q0 166 126 255t306 89q156 0 287 -85t131 -237q0 -115 -72.5 -207t-187.5 -151l215 -238l80 92q43 49 78 72t78 23q45 0 78.5 -35t33.5 -94q0 -39 -26.5 -84t-85.5 -111l-52 -55l140 -158 q10 -12 20 -24.5t17.5 -30t7.5 -47.5q0 -53 -42 -95.5t-102 -42.5q-61 0 -108 48l-141 147q-111 -98 -217.5 -146.5t-233.5 -48.5q-219 0 -361.5 117t-142.5 326zM344 446q0 -94 59.5 -147t155.5 -53q76 0 134 28t126 91l-297 329q-84 -51 -131 -110.5t-47 -137.5zM532 1147 q0 -49 21.5 -82t87.5 -94q55 27 102.5 68.5t47.5 90.5q0 63 -41.5 91t-94.5 28q-41 0 -82 -28.5t-41 -73.5z" />
<glyph unicode="'" horiz-adv-x="493" d="M123 1012v348q0 55 33.5 89t89.5 34q57 0 90 -33t33 -90v-348q0 -55 -34 -89t-89 -34q-57 0 -90 33t-33 90z" />
<glyph unicode="(" horiz-adv-x="495" d="M80 584q0 199 55 486.5t114.5 350t102.5 62.5q53 0 92 -33t39 -86q0 -18 -10 -55l-43 -133q-14 -45 -32.5 -117t-39 -197t-20.5 -278q0 -154 22.5 -307.5t53.5 -241.5l49 -144q20 -61 20 -75q0 -59 -35.5 -95t-95.5 -36q-31 0 -59.5 22.5t-74.5 104.5t-80 269t-46 299 t-12 204z" />
<glyph unicode=")" horiz-adv-x="495" d="M10 -197q0 18 10 56l46 133q35 102 62.5 270t27.5 322q0 70 -6.5 152.5t-23.5 201.5t-44 195l-49 143l-23 76q0 59 36 95t95 36q33 0 60.5 -20.5t75 -107.5t92.5 -335t45 -436q0 -199 -55.5 -486.5t-115 -350t-102.5 -62.5q-49 0 -90 34.5t-41 83.5z" />
<glyph unicode="*" horiz-adv-x="800" d="M59 961q0 55 62 83l100 41l-102 48q-59 35 -60 79q0 45 29 82t74 37q31 0 71 -28l76 -56l-10 80l-6 49q0 47 29.5 70.5t74.5 23.5q47 0 76 -22.5t29 -71.5l-4 -57l-13 -72l78 58q39 27 70 26q41 0 76 -35q31 -37 30 -84q0 -53 -61 -82l-103 -45l105 -45q59 -31 59 -79 q0 -47 -30.5 -84t-75.5 -37q-35 0 -76 30l-72 56l17 -129q0 -47 -30 -71t-75 -24q-47 0 -75.5 23t-28.5 72l8 73l8 56l-78 -58q-41 -29 -69 -28q-45 0 -74 35.5t-29 85.5z" />
<glyph unicode="+" horiz-adv-x="1234" d="M72 518q0 55 33.5 89t89.5 34h297v297q0 55 34.5 89t89.5 34q57 0 90 -33t33 -90v-297h297q57 0 90 -33t33 -90q0 -55 -33.5 -89t-89.5 -34h-297v-297q0 -55 -33.5 -89t-89.5 -34q-57 0 -90.5 33t-33.5 90v297h-297q-57 0 -90 33t-33 90z" />
<glyph unicode="," horiz-adv-x="552" d="M-20 -139l4 33l20 49l170 307q14 29 53 49t66 20q59 0 100 -39.5t41 -95.5l-2 -26l-24 -56l-172 -307q-14 -31 -54 -49q-35 -20 -63 -20q-55 0 -97 40.5t-42 94.5z" />
<glyph unicode="-" horiz-adv-x="800" d="M63 592q0 57 31 94t86 37h438q55 0 86 -37t31 -94t-29.5 -92t-87.5 -35h-438q-53 0 -84 37q-33 33 -33 90z" />
<glyph unicode="." horiz-adv-x="552" d="M115 135q0 66 46.5 113t112.5 47t113 -47t47 -113t-47 -113t-113 -47t-112.5 47.5t-46.5 112.5z" />
<glyph unicode="/" horiz-adv-x="837" d="M16 88l7 25l12 32l549 1262q14 39 40.5 57.5t73.5 18.5q53 0 87 -34t34 -79l-6 -24l-12 -33l-547 -1262q-16 -37 -41 -56.5t-74 -19.5q-51 0 -87 34t-36 79z" />
<glyph unicode="0" d="M45 729q0 301 129 527.5t416 226.5q281 0 412 -229.5t131 -524.5q0 -301 -129.5 -527.5t-413.5 -226.5q-285 0 -415 227.5t-130 526.5zM365 729q0 -184 44 -329.5t181 -145.5t180 146.5t43 328.5q0 184 -43 329.5t-180 145.5q-139 0 -182 -144.5t-43 -330.5z" />
<glyph unicode="1" horiz-adv-x="761" d="M51 1317q0 59 38 100t101 41h291q68 0 104 -40t36 -105v-1166q0 -76 -42 -117.5t-114 -41.5q-66 0 -110 40.5t-44 118.5v1029h-121q-70 0 -104.5 40.5t-34.5 100.5z" />
<glyph unicode="2" d="M92 135q0 31 8.5 48.5t15.5 25.5t40 49l215 248q176 197 226 267.5t73.5 111.5t38 74.5t14.5 82.5q0 66 -42 112t-106 46q-123 0 -176 -166t-145 -166q-70 0 -110 45t-40 105q0 190 145.5 327.5t338.5 137.5t323.5 -119t130.5 -307q0 -129 -74.5 -259t-195.5 -272 l-221 -256h375q72 0 115.5 -33.5t43.5 -101.5q0 -66 -40.5 -100.5t-106.5 -34.5h-686q-70 0 -115 34t-45 101z" />
<glyph unicode="3" d="M66 360q0 57 48 97.5t109 40.5q59 0 136 -120t204 -120q78 0 135.5 54.5t57.5 136.5q0 150 -175 176t-175 141q0 102 146 143t146 154q0 61 -40 99t-107 38q-106 0 -176 -100.5t-133 -100.5q-59 0 -96 46.5t-37 105.5q0 119 139 225.5t309 106.5q203 0 319.5 -120 t116.5 -255q0 -207 -168 -313q111 -51 180.5 -148.5t69.5 -218.5q0 -188 -150.5 -320.5t-365.5 -132.5q-217 0 -355 126t-138 259z" />
<glyph unicode="4" d="M33 442q0 31 4 45.5t24 44.5l461 832q33 63 80 91t129 28q102 0 169 -64.5t67 -197.5v-629h34q61 0 102.5 -37t41.5 -98t-41 -98t-103 -37h-34v-175q0 -86 -33 -122.5t-115 -36.5q-147 0 -147 159v175h-496q-70 0 -106.5 36.5t-36.5 83.5zM389 592h283v571z" />
<glyph unicode="5" d="M66 250q0 57 40.5 98t98.5 41q16 0 136 -65.5t183 -65.5q102 0 159.5 82t57.5 186q0 96 -51 151.5t-145 55.5q-66 0 -130.5 -33.5t-113.5 -33.5q-53 0 -87 33.5t-34 62.5l6 69l52 433q14 115 47.5 154.5t111.5 39.5h496q70 0 109.5 -36t39.5 -93q0 -90 -46 -121.5 t-97 -31.5h-387l-31 -218l84 17l72 4q186 0 305 -125t119 -311q0 -262 -140.5 -415t-402.5 -153q-135 0 -293.5 78t-158.5 197z" />
<glyph unicode="6" d="M74 483q0 215 170 491.5t266 366.5l121 107l33 22q8 6 28 11l31 2q43 0 96 -47q49 -49 49 -103q0 -16 -10 -36.5t-92 -114.5l-223 -260l4 -4q55 25 129 24q178 0 303 -137t125 -322q0 -205 -145.5 -356.5t-368.5 -151.5q-231 0 -373.5 147.5t-142.5 360.5zM393 483 q0 -88 53.5 -150.5t143.5 -62.5q86 0 140 60.5t54 152.5q0 86 -51 149.5t-143 63.5q-88 0 -142.5 -60.5t-54.5 -152.5z" />
<glyph unicode="7" horiz-adv-x="1107" d="M31 1317q0 61 34.5 101t116.5 40h744q68 0 107.5 -47t39.5 -100q0 -31 -18 -72l-29 -63l-508 -1033q-20 -39 -35.5 -65.5t-39 -58t-99.5 -31.5t-123 47t-47 98q1 33 21 72l514 971h-527q-78 0 -114.5 40.5t-36.5 100.5z" />
<glyph unicode="8" d="M82 442q0 119 59.5 209t159.5 146q-76 55 -116 125.5t-40 167.5q0 176 127 284.5t318 108.5q188 0 316 -107.5t128 -285.5q0 -88 -41 -168t-116 -125q100 -51 159.5 -142.5t59.5 -212.5q0 -209 -146.5 -338t-359.5 -129q-219 0 -363.5 132t-144.5 335zM401 463 q0 -86 48.5 -145.5t140.5 -59.5q82 0 134 60.5t52 144.5q0 96 -49 151q-53 53 -137 54q-88 0 -138.5 -57.5t-50.5 -147.5zM440 1057q0 -74 39 -113q37 -43 111 -43q70 0 109.5 41t39.5 115q0 68 -40 111.5t-109 43.5q-70 0 -110 -41.5t-40 -113.5z" />
<glyph unicode="9" d="M74 975q0 205 145.5 356.5t370.5 151.5q227 0 370.5 -149.5t143.5 -358.5q0 -215 -169 -490.5t-265 -365.5l-119 -107l-33 -22l-31 -13l-32 -2q-45 0 -95 50q-51 45 -51 100q0 16 10.5 36.5t92.5 114.5l225 261l-4 4q-55 -25 -131 -25q-180 0 -304 135t-124 324zM393 975 q0 -86 51.5 -149.5t145.5 -63.5q86 0 140 60.5t54 152.5t-52 152.5t-142 60.5q-88 0 -142.5 -60.5t-54.5 -152.5z" />
<glyph unicode=":" horiz-adv-x="552" d="M115 135q0 66 46.5 113t112.5 47t113 -47t47 -113t-47 -113t-113 -47t-112.5 47.5t-46.5 112.5zM115 793q0 66 46.5 112.5t112.5 46.5t113 -47t47 -112q0 -66 -47 -113t-113 -47t-112.5 47t-46.5 113z" />
<glyph unicode=";" horiz-adv-x="552" d="M-20 -139l4 33l20 49l170 307q14 29 53 49t66 20q59 0 100 -40t41 -95l-2 -26l-24 -56l-172 -307q-14 -31 -54 -49q-35 -20 -63 -20q-55 0 -97 40.5t-42 94.5zM115 793q0 66 46.5 112.5t112.5 46.5t113 -47t47 -112q0 -66 -47 -113t-113 -47t-112.5 47t-46.5 113z" />
<glyph unicode="&#x3c;" horiz-adv-x="1234" d="M72 518q0 47 19.5 75t55.5 42l811 371l64 26l39 4q43 0 70.5 -33.5t27.5 -95.5q0 -39 -14.5 -62.5t-59.5 -41.5l-684 -285l684 -285q39 -14 56.5 -42.5t17.5 -61.5q0 -61 -27.5 -95t-70.5 -34l-39 6q-20 2 -64 23l-811 372q-33 16 -54 43t-21 74z" />
<glyph unicode="=" horiz-adv-x="1234" d="M72 289q0 55 34 89t89 34h841q57 0 90 -33t33 -90q0 -55 -33.5 -89t-89.5 -34h-841q-57 0 -90 32.5t-33 90.5zM72 748q0 55 34 88.5t89 33.5h841q57 0 90 -32.5t33 -89.5q0 -55 -33.5 -89t-89.5 -34h-841q-57 0 -90 32.5t-33 90.5z" />
<glyph unicode="&#x3e;" horiz-adv-x="1234" d="M72 129q0 35 16 60.5t57 43.5l684 285l-684 285q-39 14 -56 44t-17 60q0 61 27.5 95t70.5 34l41 -4q25 -8 61 -26l811 -371q35 -14 55.5 -42t20.5 -75q0 -45 -20.5 -73.5t-55.5 -43.5l-811 -372q-47 -20 -63 -23l-39 -6q-41 0 -69.5 35t-28.5 94z" />
<glyph unicode="?" horiz-adv-x="989" d="M6 1145q0 147 146.5 242.5t308.5 95.5q211 0 351 -120t140 -319q0 -166 -95 -270t-259 -143v-74q0 -59 -43 -100t-106 -41q-68 0 -108 37.5t-40 103.5v205q0 49 37 66.5t123 40t129 58.5t43 117q0 66 -51.5 111t-120.5 45q-92 0 -181.5 -101.5t-148.5 -101.5 q-55 0 -90 41t-35 107zM289 135q0 66 47 113t113 47q68 0 114.5 -47t46.5 -113t-47 -113t-114 -47q-66 0 -113 47t-47 113z" />
<glyph unicode="@" horiz-adv-x="1646" d="M66 729q0 311 221 532.5t534 221.5q295 0 525.5 -191.5t230.5 -466.5q0 -236 -166 -369.5t-332 -133.5q-106 0 -106 61q-88 -106 -217 -107q-162 0 -271.5 124t-109.5 317q0 190 110.5 316t270.5 126q51 0 70.5 -4t63.5 -23.5t83 -74.5q6 43 35.5 68.5t72.5 25.5 q70 0 93 -41q18 -43 18 -109v-407q0 -25 23.5 -46.5t52.5 -21.5q49 0 86 70t37 229q0 213 -169 343t-401 130q-236 0 -403.5 -165.5t-167.5 -403.5t168 -403.5t403 -165.5q57 0 115.5 6t136.5 22.5t120 38t63.5 37t63.5 48t64 32.5q35 0 55.5 -14.5t20.5 -61.5 q0 -27 -12 -49l-43 -61q-111 -100 -261.5 -141.5t-322.5 -41.5q-313 0 -534 221.5t-221 532.5zM606 717q0 -94 47 -160q45 -70 133 -70q86 0 131.5 71t45.5 159t-45.5 160.5t-131.5 72.5q-88 0 -134 -68.5t-46 -164.5z" />
<glyph unicode="A" horiz-adv-x="1296" d="M4 131l6 45l8 23l412 1114q29 78 87 124t134 46q82 0 137.5 -46t81.5 -124l402 -1114l12 -41l4 -35q0 -61 -41 -98t-100 -37q-61 0 -98 28.5t-52 77.5l-61 193h-571l-62 -191q-14 -49 -50 -78.5t-97 -29.5q-59 0 -105.5 40t-46.5 103zM453 569h391l-191 594z" />
<glyph unicode="B" d="M92 156v1149q0 74 46 113.5t116 39.5h395q166 0 275.5 -101.5t109.5 -258.5q0 -211 -190 -301q133 -23 222 -120t89 -233q0 -211 -129 -327.5t-346 -116.5h-424q-70 0 -117 42t-47 114zM399 270h244q86 0 139.5 47.5t53.5 131.5q0 72 -55.5 116.5t-162.5 44.5h-219v-340z M399 881h162q76 0 121 42t45 119q0 66 -46 106t-120 40h-162v-307z" />
<glyph unicode="C" horiz-adv-x="1257" d="M35 729q0 324 196.5 539t509.5 215q150 0 295.5 -54.5t145.5 -175.5q0 -55 -36 -96t-91 -41q-33 0 -125 37q-98 35 -189 35q-180 0 -283.5 -133t-103.5 -332q0 -190 103.5 -321.5t283.5 -131.5q82 0 203 43l123 43q63 0 99 -47t36 -92q0 -131 -150.5 -186.5t-310.5 -55.5 q-311 0 -508.5 215.5t-197.5 538.5z" />
<glyph unicode="D" horiz-adv-x="1372" d="M92 154v1146q0 72 43 115t115 43h342q342 0 484.5 -151.5t189.5 -286.5t47 -311q0 -322 -190.5 -515.5t-510.5 -193.5h-358q-61 0 -111.5 37t-50.5 117zM399 283h209q190 0 287.5 123.5t97.5 316.5q0 209 -101 331t-304 122h-189v-893z" />
<glyph unicode="E" horiz-adv-x="952" d="M92 154v1126q0 78 41 128t119 50h510q68 0 108 -41q37 -43 37 -100t-40 -99t-105 -42h-363v-299h338q70 0 110 -40t40 -102q0 -59 -40 -100t-110 -41h-338v-311h381q68 0 109 -41q37 -43 37 -101q0 -57 -40 -99t-106 -42h-530q-70 0 -113 43q-45 39 -45 111z" />
<glyph unicode="F" horiz-adv-x="913" d="M92 147v1151q0 66 43 113t117 47h526q63 0 100 -41t37 -100q0 -57 -35.5 -99t-101.5 -42h-379v-299h320q68 0 107.5 -40t39.5 -100q0 -59 -40 -101t-107 -42h-320v-447q0 -76 -42 -117.5t-111 -41.5q-66 0 -110 40.5t-44 118.5z" />
<glyph unicode="G" horiz-adv-x="1447" d="M35 729q0 324 196.5 539t509.5 215q227 0 395.5 -88t168.5 -201q0 -61 -36 -102t-91 -41q-16 0 -162 74.5t-275 74.5q-182 0 -284.5 -134t-102.5 -337t101.5 -337t285.5 -134q139 0 244 80t105 244h-209q-61 0 -102.5 41t-41.5 102t41.5 100t102.5 39h348q180 0 180 -196 q0 -301 -183.5 -497t-484.5 -196q-311 0 -508.5 215.5t-197.5 538.5z" />
<glyph unicode="H" horiz-adv-x="1447" d="M92 147v1164q0 76 42 117.5t112 41.5q66 0 109.5 -40.5t43.5 -118.5v-434h645v434q0 76 42 117.5t112 41.5q66 0 110 -40.5t44 -118.5v-1164q0 -76 -42 -117.5t-112 -41.5q-66 0 -110 41t-44 118v447h-645v-447q0 -76 -42 -117.5t-111 -41.5q-66 0 -110 40.5t-44 118.5z " />
<glyph unicode="I" horiz-adv-x="493" d="M92 147v1164q0 76 42 117.5t112 41.5q66 0 109.5 -40.5t43.5 -118.5v-1164q0 -76 -42 -117.5t-111 -41.5q-66 0 -110 40.5t-44 118.5z" />
<glyph unicode="J" horiz-adv-x="837" d="M-29 209q0 47 33 86t82 39q33 0 118 -38t128 -38q74 0 94 48t20 124v881q0 76 44.5 117.5t111.5 41.5q66 0 110 -40.5t44 -118.5v-901q0 -236 -119 -335.5t-289 -99.5q-139 0 -258 56.5t-119 177.5z" />
<glyph unicode="K" horiz-adv-x="1257" d="M92 135v1184q0 61 42 106t112 45q72 0 112.5 -39.5t40.5 -111.5v-442l506 536q6 6 20.5 18.5t37 25.5t61.5 13q59 0 105.5 -42t46.5 -105t-101 -164l-387 -381l473 -493q43 -41 64.5 -78t21.5 -78q0 -72 -46 -106.5t-114 -34.5q-39 0 -71.5 21.5t-83.5 74.5l-533 573 v-522q0 -63 -42 -105t-111 -42q-70 0 -112 39.5t-42 107.5z" />
<glyph unicode="L" horiz-adv-x="876" d="M92 168v1143q0 76 42 117.5t112 41.5q66 0 109.5 -40.5t43.5 -118.5v-1028h367q70 0 111 -43q36 -46 36 -102t-41 -97t-106 -41h-514q-74 0 -117 46t-43 122z" />
<glyph unicode="M" horiz-adv-x="1792" d="M49 135l2 35l191 1143q10 59 66.5 108t133.5 49q74 0 131.5 -43t75.5 -104l242 -811l246 811q18 59 76.5 103t127.5 44q76 0 136 -47q55 -49 67 -110l191 -1143l2 -35q0 -66 -44 -106.5t-104 -40.5q-141 0 -162 143l-120 834l-250 -859q-16 -51 -53 -84.5t-111 -33.5 t-111 37q-20 16 -31.5 34.5t-21.5 46.5l-248 859l-125 -834q-10 -74 -48 -108.5t-111 -34.5q-63 0 -105.5 41t-42.5 106z" />
<glyph unicode="N" horiz-adv-x="1409" d="M80 147v1164q0 76 42 117.5t111 41.5q29 0 70 -18q37 -20 59 -49l652 -866l4 774q0 76 42 117.5t111 41.5q66 0 110 -40.5t44 -118.5v-1164q0 -76 -42 -117.5t-112 -41.5q-33 0 -67 20q-39 18 -62 47l-651 856l-4 -764q0 -76 -42 -117.5t-112 -41.5q-66 0 -109.5 40.5 t-43.5 118.5z" />
<glyph unicode="O" horiz-adv-x="1484" d="M35 729q0 324 196.5 539t509.5 215q303 0 504 -219.5t201 -534.5q0 -324 -196.5 -539t-508.5 -215q-311 0 -508.5 215t-197.5 539zM354 729q0 -203 101.5 -337t285.5 -134t284.5 135t100.5 336q0 197 -100 334t-285 137q-182 0 -284.5 -134t-102.5 -337z" />
<glyph unicode="P" horiz-adv-x="1144" d="M92 147v1151q0 72 41 116t119 44h364q225 0 375 -137t150 -352q0 -219 -148.5 -352.5t-363.5 -133.5h-230v-336q0 -76 -42 -117.5t-111 -41.5q-66 0 -110 40.5t-44 118.5zM399 754h211q94 0 152.5 60t58.5 157q0 92 -58 154.5t-153 62.5h-211v-434z" />
<glyph unicode="Q" horiz-adv-x="1484" d="M35 729q0 324 196.5 539t509.5 215q303 0 504 -219.5t201 -534.5q0 -279 -137 -473l116 -100q39 -33 55.5 -59.5t16.5 -65.5q0 -53 -41 -91t-100 -38h-2q-58 0 -135 65l-117 99q-158 -90 -361 -91q-311 0 -508.5 215.5t-197.5 538.5zM354 729q0 -203 101.5 -337 t285.5 -134l64 4l67 10l-73 72q-39 33 -39 82q0 66 38 106.5t101 40.5l39 -4l39 -22l100 -80q25 51 37 124t12 138q0 197 -100 334t-285 137q-182 0 -284.5 -134t-102.5 -337z" />
<glyph unicode="R" horiz-adv-x="1144" d="M92 147v1151q0 74 41 117t117 43h362q246 0 378 -113.5t132 -349.5q0 -162 -104.5 -260t-274.5 -127l349 -372q20 -20 30.5 -45t10.5 -46q0 -61 -45.5 -109t-108.5 -48q-33 0 -62.5 12t-56.5 41l-457 551l-4 -445q0 -76 -42 -117.5t-111 -41.5q-66 0 -110 40.5t-44 118.5 zM399 813h213q86 0 138.5 47t52.5 135q0 84 -52.5 132.5t-138.5 48.5h-213v-363z" />
<glyph unicode="S" horiz-adv-x="1105" d="M39 205q0 63 38 104t99 41q37 0 163 -40t183 -40q100 0 154.5 48.5t54.5 127.5q0 96 -225 166t-343 136.5t-118 269.5q0 209 148.5 337t361.5 128q127 0 264 -49.5t137 -155.5q0 -63 -37.5 -107.5t-99.5 -44.5q-35 0 -125 31t-147 31q-74 0 -122 -35t-48 -98 q0 -80 218 -145.5t343 -148.5t125 -310q0 -215 -150.5 -345.5t-373.5 -130.5q-184 0 -342 50.5t-158 179.5z" />
<glyph unicode="T" horiz-adv-x="987" d="M-25 1317q0 59 38 100t102 41h755q61 0 103 -41q37 -43 37 -100t-36 -99t-104 -42h-223v-1029q0 -76 -42 -117.5t-113 -41.5q-66 0 -110 40.5t-44 118.5v1029h-223q-70 0 -105 40.5t-35 100.5z" />
<glyph unicode="U" horiz-adv-x="1409" d="M80 580v731q0 76 42 117.5t111 41.5q66 0 110 -40.5t44 -118.5v-715q0 -145 88 -241.5t230 -96.5q135 0 224 97.5t89 240.5v715q0 76 42 117.5t111 41.5q66 0 110 -40.5t44 -118.5v-731q0 -254 -181 -429.5t-439 -175.5q-262 0 -443.5 172.5t-181.5 432.5z" />
<glyph unicode="V" horiz-adv-x="1218" d="M-8 1323q0 63 47 105t111 42q51 0 84.5 -26.5t54.5 -73.5l319 -852l318 852q23 47 55.5 73.5t83.5 26.5q59 0 111 -40q47 -43 47 -107q0 -41 -15 -76l-448 -1141q-27 -61 -58.5 -89.5t-93.5 -28.5q-61 0 -97 32.5t-56 85.5l-449 1141q-14 35 -14 76z" />
<glyph unicode="W" horiz-adv-x="1869" d="M16 1335q0 49 41 92t105 43q70 0 108.5 -36.5t55.5 -110.5l174 -870l272 897q14 53 57 86.5t103 33.5q123 0 160 -120l266 -897l178 870q18 72 58 109.5t108 37.5q63 0 104 -40.5t41 -94.5q0 -39 -8 -69l-260 -1119q-14 -70 -67.5 -114.5t-137.5 -44.5q-74 0 -129 43 t-74 106l-237 791l-242 -791q-18 -66 -72.5 -107.5t-132.5 -41.5q-82 0 -135 44.5t-67 114.5l-260 1119q-8 31 -9 69z" />
<glyph unicode="X" horiz-adv-x="1259" d="M8 131q0 27 10 57l25 48l406 544l-332 451q-33 41 -33 90q0 66 45 107.5t111 41.5q39 0 73.5 -21.5t59.5 -53.5l256 -361l254 361q20 33 56 54t77 21q63 0 109 -39.5t46 -109.5q0 -49 -32 -90l-332 -451l405 -544l25 -48q10 -31 10 -57q0 -63 -42 -103t-113 -40 q-78 0 -127 67l-336 467l-338 -467q-48 -67 -125 -67h-2q-66 0 -111 40t-45 103z" />
<glyph unicode="Y" horiz-adv-x="1103" d="M-20 1321q0 59 41.5 104t105.5 45q84 0 127 -61l297 -428l295 428q43 61 127 61q66 0 96.5 -32.5t40.5 -57t10 -59.5q0 -51 -28 -92l-387 -545v-547q0 -63 -39 -106t-115 -43t-116 41.5t-40 107.5v547l-387 545q-29 41 -28 92z" />
<glyph unicode="Z" horiz-adv-x="1220" d="M45 147q0 59 41 119l662 922h-541q-143 0 -144 131q0 59 41 99t103 40h751q82 0 129 -43q43 -47 43 -104q0 -74 -45 -131l-657 -910h596q66 0 106.5 -34.5t40.5 -100.5q0 -57 -45 -96t-102 -39h-807q-78 0 -125 41t-47 106z" />
<glyph unicode="[" horiz-adv-x="573" d="M90 -168v1503q0 66 41 107t109 41h204q45 0 78 -29t33 -88t-29 -88q-35 -29 -82 -29h-96v-1331h96q45 0 78 -28.5t33 -88.5q0 -59 -29 -88q-35 -29 -82 -28h-204q-70 0 -110 39.5t-40 107.5z" />
<glyph unicode="\" horiz-adv-x="837" d="M16 1370q0 45 34 79t87 34q45 0 74 -19q25 -20 41 -57l549 -1262l14 -32l4 -25q0 -45 -33.5 -79t-89.5 -34q-49 0 -73.5 20.5t-38.5 55.5l-551 1262z" />
<glyph unicode="]" horiz-adv-x="573" d="M16 -199q0 61 29 89t80 28h96v1331h-96q-45 0 -77 29t-32 88q0 61 29 89t80 28h205q70 0 109.5 -40t39.5 -108v-1503q0 -66 -41 -106.5t-108 -40.5h-205q-45 0 -77 28.5t-32 87.5z" />
<glyph unicode="^" horiz-adv-x="1234" d="M150 727q0 35 26 82l330 600q20 33 48 47t62 14q37 0 66 -13t43 -48l330 -600q27 -47 26 -82q0 -37 -30.5 -59.5t-73.5 -22.5q-39 0 -63.5 10.5t-41.5 34.5l-256 473l-258 -473q-33 -45 -104 -45q-49 0 -76.5 19.5t-27.5 62.5z" />
<glyph unicode="_" horiz-adv-x="1028" d="M-59 -205q0 20 15 35.5t44 15.5h1026q59 0 59 -51q0 -20 -15 -35.5t-44 -15.5h-1026q-59 0 -59 51z" />
<glyph unicode="`" horiz-adv-x="456" d="M-25 1456q0 47 34 87t77 40q29 0 78 -20l242 -99l16 -8q57 -31 57 -82q0 -55 -30 -102q-35 -47 -78 -47q-35 0 -47 6l-35 14l-230 90q-84 31 -84 121z" />
<glyph unicode="a" d="M41 543q0 244 141.5 407.5t347.5 163.5q86 0 160 -33.5t121 -101.5q6 53 47 88t94 35q92 0 117 -54.5t25 -138.5v-729q0 -84 -23.5 -138t-118.5 -54q-59 0 -92 31.5t-49 93.5q-113 -137 -281 -138q-211 0 -350 159t-139 409zM336 543q0 -117 60 -207t175 -90 q109 0 168.5 90t59.5 207q0 115 -59.5 208t-168.5 93q-115 0 -175 -91t-60 -210z" />
<glyph unicode="b" d="M84 152v1261q0 72 40 118t107 46q68 0 108 -46t40 -118v-401q121 102 283 102q225 0 350 -174t125 -410q0 -217 -136.5 -386t-349.5 -169q-78 0 -154.5 34t-117.5 102q-29 -123 -148 -123q-68 0 -107.5 46t-39.5 118zM379 553q0 -121 59 -214t174 -93q106 0 168 91 t62 206q0 117 -59.5 209t-170.5 92q-113 0 -173 -86t-60 -205z" />
<glyph unicode="c" horiz-adv-x="952" d="M41 543q0 231 151.5 401t378.5 170q125 0 243 -45t118 -141q0 -49 -32 -95.5t-81 -46.5q-27 0 -112.5 29t-120.5 29q-121 0 -185.5 -89t-64.5 -212q0 -117 66.5 -207t183.5 -90q41 0 96 20l123 41q53 0 90 -37t37 -92q0 -98 -123 -150.5t-238 -52.5q-236 0 -383 165 t-147 403z" />
<glyph unicode="d" d="M41 530q0 236 124 410t353 174q160 0 281 -102v401q0 72 40 118t107 46q68 0 108 -46t40 -118v-1261q0 -72 -40 -118t-108 -46q-119 0 -147 123q-41 -66 -117 -101t-154 -35q-217 0 -352 167t-135 388zM336 543q0 -117 59.5 -207t171.5 -90q113 0 172.5 93t59.5 214 q0 117 -59.5 204t-172.5 87q-109 0 -170 -92.5t-61 -208.5z" />
<glyph unicode="e" horiz-adv-x="1105" d="M20 543q0 231 152 401t379 170q229 0 379.5 -169t150.5 -367q0 -132 -129 -132h-630q16 -106 93 -159.5t187 -53.5q70 0 201 60l133 59q47 0 84 -40t37 -87q0 -94 -157 -172t-325 -78q-248 0 -401.5 160t-153.5 408zM315 643h471q-12 100 -72.5 162.5t-162.5 62.5 q-96 0 -161 -64.5t-75 -160.5z" />
<glyph unicode="f" horiz-adv-x="610" d="M-43 961q0 55 37 92t92 37h66v151q0 158 82.5 247t226.5 89q92 0 149.5 -30.5t57.5 -102.5q0 -125 -121 -125q-53 0 -77 -17.5t-24 -91.5v-120h95q70 0 109.5 -30t39.5 -99q0 -66 -39 -98t-110 -32h-95v-679q0 -72 -39.5 -118t-107.5 -46t-107.5 46t-39.5 118v679h-66 q-59 0 -94 35t-35 95z" />
<glyph unicode="g" d="M41 541q0 231 135 402t352 171q80 0 155 -33.5t116 -101.5q29 123 147 123q68 0 108 -46t40 -118v-852q0 -256 -153 -394t-415 -138q-137 0 -302 58t-165 163q0 45 38 87t81 42q20 0 121.5 -34t155 -46t94.5 -12q109 0 179.5 61t70.5 172v70q-102 -139 -303 -140 q-219 0 -337 164t-118 402zM336 547q0 -125 58.5 -213t172.5 -88q111 0 171.5 87t60.5 204q0 125 -58.5 216t-173.5 91q-109 0 -170 -91t-61 -206z" />
<glyph unicode="h" horiz-adv-x="1144" d="M84 152v1261q0 72 40 118t107 46q68 0 108 -46t40 -118v-401q47 53 120.5 77.5t153.5 24.5q178 0 291 -106.5t113 -290.5v-565q0 -72 -40 -118t-108 -46t-107.5 46t-39.5 118v514q0 98 -53.5 150t-139.5 52q-90 0 -140 -56t-50 -146v-514q0 -72 -40 -118t-108 -46 t-107.5 46t-39.5 118z" />
<glyph unicode="i" horiz-adv-x="456" d="M61 1382q0 63 49.5 112.5t116.5 49.5q66 0 116 -47t50 -115t-48 -119t-118 -51q-66 0 -116 50.5t-50 119.5zM80 152v786q0 72 40 118t107 46q68 0 108 -46t40 -118v-786q0 -72 -40 -118t-108 -46t-107.5 46t-39.5 118z" />
<glyph unicode="j" horiz-adv-x="456" d="M61 1382q0 63 49.5 112.5t116.5 49.5q66 0 116 -47t50 -115t-48 -119t-118 -51q-66 0 -116 50.5t-50 119.5zM80 -283v1221q0 72 40 118t107 46q68 0 108 -46t40 -118v-1221q0 -72 -40 -117.5t-108 -45.5t-107.5 45.5t-39.5 117.5z" />
<glyph unicode="k" horiz-adv-x="1028" d="M84 152v1261q0 72 40 118t107 46q68 0 108 -46t40 -118v-688l326 313q35 35 66.5 49.5t66.5 14.5q53 0 89 -40t36 -93q0 -31 -10.5 -53.5t-19.5 -36t-28 -27.5l-262 -234l346 -405q37 -43 37 -98q0 -59 -40 -99.5t-99 -40.5q-68 0 -142 91l-362 444l-4 -358 q0 -72 -40 -118t-108 -46t-107.5 46t-39.5 118z" />
<glyph unicode="l" horiz-adv-x="456" d="M80 152v1261q0 72 40 118t107 46q68 0 108 -46t40 -118v-1261q0 -72 -40 -118t-108 -46t-107.5 46t-39.5 118z" />
<glyph unicode="m" horiz-adv-x="1755" d="M84 152v786q0 72 40 118t107 46q119 0 136 -111q115 123 276 123q186 0 305 -149q61 72 144.5 110.5t167.5 38.5q182 0 293.5 -103.5t111.5 -293.5v-565q0 -72 -40 -118t-109 -46q-68 0 -108 46t-40 118v514q0 90 -46 146t-126 56t-127 -56t-47 -146v-514q0 -72 -40 -118 t-108 -46t-107.5 46t-39.5 118v514q0 90 -46 146t-126 56q-90 0 -133 -55t-43 -147v-514q0 -72 -40 -118t-108 -46t-107.5 46t-39.5 118z" />
<glyph unicode="n" horiz-adv-x="1144" d="M84 152v786q0 72 40 118t107 46q119 0 136 -109q43 61 112 92q74 29 174 29q178 0 291 -106.5t113 -290.5v-565q0 -72 -40 -118t-108 -46t-107.5 46t-39.5 118v514q0 98 -53.5 150t-139.5 52q-90 0 -140 -56t-50 -146v-514q0 -72 -40 -118t-108 -46t-107.5 46t-39.5 118z " />
<glyph unicode="o" horiz-adv-x="1144" d="M41 543q0 231 151.5 401t378.5 170q229 0 379 -167.5t150 -403.5q0 -238 -147.5 -403t-381.5 -165q-236 0 -383 165t-147 403zM336 543q0 -117 60.5 -207t174.5 -90q113 0 173.5 90t60.5 207t-60.5 209t-173.5 92q-115 0 -175 -91t-60 -210z" />
<glyph unicode="p" d="M84 -283v1221q0 72 40 118t107 46q119 0 148 -123q39 63 117 100q82 35 166 35q225 0 350 -174t125 -410q0 -217 -136.5 -386t-349.5 -169q-72 0 -143.5 26t-128.5 77v-361q0 -72 -40 -117.5t-108 -45.5t-107.5 45.5t-39.5 117.5zM379 553q0 -121 59 -214t174 -93 q106 0 168 91t62 206q0 117 -59.5 209t-170.5 92q-113 0 -173 -86t-60 -205z" />
<glyph unicode="q" d="M41 530q0 236 124 410t353 174q92 0 166 -33.5t115 -101.5q29 123 147 123q68 0 108 -46t40 -118v-1221q0 -72 -40 -117.5t-108 -45.5t-107.5 46t-39.5 117v361q-121 -102 -271 -103q-217 0 -352 167t-135 388zM336 543q0 -117 59.5 -207t171.5 -90q113 0 172.5 93 t59.5 214q0 117 -59.5 204t-172.5 87q-109 0 -170 -92.5t-61 -208.5z" />
<glyph unicode="r" horiz-adv-x="686" d="M80 152v802q0 70 45 109t106 39q66 0 105 -26.5t39 -96.5q90 123 213 123q55 0 99 -41t44 -117q0 -70 -63 -96l-113 -47q-92 -43 -136 -80t-44 -117v-452q0 -72 -40 -118t-108 -46t-107.5 46t-39.5 118z" />
<glyph unicode="s" horiz-adv-x="876" d="M20 203q0 39 35 85t92 46q51 0 146.5 -50.5t159.5 -50.5q68 0 93 19.5t25 64.5q0 51 -164.5 116t-257 128.5t-92.5 208.5q0 156 111 250t289 94q131 0 250.5 -56.5t119.5 -156.5q0 -51 -33.5 -91t-86.5 -40q-12 0 -117 43t-150 43t-72.5 -21.5t-27.5 -60.5 q0 -51 162 -113.5t257 -128t95 -210.5q0 -147 -115.5 -247t-306.5 -100q-139 0 -275.5 65.5t-136.5 162.5z" />
<glyph unicode="t" horiz-adv-x="610" d="M-39 961q0 55 37 92t92 37h66v176q0 72 40 118t107 46q68 0 108 -46.5t40 -117.5v-176h86q61 0 101 -32t40 -97q0 -66 -39 -98t-102 -32h-86v-679q0 -72 -40 -118t-108 -46t-107.5 46t-39.5 118v679h-66q-59 0 -94 35t-35 95z" />
<glyph unicode="u" horiz-adv-x="1144" d="M84 406v532q0 72 40 118t107 46q68 0 108 -46t40 -118v-526q0 -86 54 -138.5t138 -52.5q76 0 133.5 51.5t57.5 139.5v526q0 72 40 118t107 46q68 0 108 -46t40 -118v-532q0 -201 -127 -316t-359 -115q-231 0 -359 116t-128 315z" />
<glyph unicode="v" horiz-adv-x="950" d="M-2 958q0 66 45 105t109 39q55 0 84.5 -30t46.5 -75l188 -581l195 581q16 45 45.5 75t85.5 30q63 0 108 -37t45 -107q0 -39 -18 -86l-297 -761q-27 -68 -58.5 -95.5t-103.5 -27.5q-68 0 -100.5 26.5t-59.5 96.5l-297 761l-14 48z" />
<glyph unicode="w" horiz-adv-x="1601" d="M14 983q0 49 42 84t106 35q53 0 90 -31t49 -86l170 -563l178 551q18 63 53 96t97 33q63 0 88.5 -25.5t38 -46t22.5 -57.5l172 -551l174 563q12 53 50 85t90 32q68 0 110 -37q39 -39 39 -107q0 -16 -10 -51l-19 -59l-254 -711q-25 -70 -66.5 -109.5t-111.5 -39.5 q-68 0 -107.5 33.5t-62.5 103.5l-151 475l-156 -475q-23 -70 -62.5 -103.5t-109.5 -33.5t-111.5 39.5t-66.5 109.5l-250 707q-31 90 -31 139z" />
<glyph unicode="x" horiz-adv-x="1028" d="M0 131q0 53 41 100l299 340l-250 281q-18 20 -31 53q-14 27 -14 53q0 57 47 100.5t105 43.5q33 0 58.5 -14.5t49.5 -43.5l207 -258l209 258q45 57 108 58q59 0 105.5 -42t46.5 -102q0 -25 -11.5 -50t-14.5 -31.5t-19 -24.5l-250 -281l299 -340q41 -47 41 -100 q0 -66 -39 -104.5t-106 -38.5q-41 0 -68 16t-55 49l-246 299l-244 -299q-14 -16 -26.5 -28.5t-27.5 -24.5t-69 -12q-66 0 -105.5 40t-39.5 103z" />
<glyph unicode="y" horiz-adv-x="989" d="M-4 975q0 53 46 90t93 37q106 0 148 -105l202 -555l220 555q41 104 147 105q47 0 93 -37t46 -90q0 -47 -14 -76l-496 -1229q-23 -53 -55.5 -84.5t-83.5 -31.5q-74 0 -114 37.5t-40 89.5q0 39 19 86l129 319l-326 813l-10 37z" />
<glyph unicode="z" horiz-adv-x="989" d="M23 100l4 37q2 12 22 43l463 651h-342q-55 0 -94 34t-39 96q0 57 39 93t94 36h672q35 0 65.5 -20.5t30.5 -72.5q0 -47 -31 -88l-467 -651h391q57 0 95.5 -34t38.5 -95q0 -57 -39 -93t-95 -36h-688q-53 0 -86.5 25.5t-33.5 74.5z" />
<glyph unicode="{" horiz-adv-x="686" d="M-20 584q0 41 24.5 69.5t73.5 28.5q47 0 72.5 25.5t25.5 109.5v397q0 139 70.5 204t202.5 65h129q92 0 92 -92q0 -47 -26 -70t-66 -23h-52q-92 0 -92 -118v-387q0 -96 -38 -134t-82 -55.5t-101 -17.5q98 -16 160 -51q61 -41 61 -160v-387q0 -119 92 -119h52q92 0 92 -92 q0 -47 -26 -69.5t-66 -22.5h-129q-273 0 -273 268v397q0 82 -24 111q-29 25 -74 24q-47 0 -72 31q-27 27 -26 68z" />
<glyph unicode="|" horiz-adv-x="456" d="M104 98v1356q0 55 34 89t89 34q57 0 90 -33t33 -90v-1356q0 -55 -33.5 -89t-89.5 -34q-57 0 -90 33t-33 90z" />
<glyph unicode="}" horiz-adv-x="686" d="M14 -223q0 47 26 69.5t66 22.5h52q90 0 90 119v387q0 96 38 134t83 55.5t100 17.5q-100 16 -160.5 53t-60.5 158v387q0 119 -90 118h-52q-92 0 -92 93q0 47 26 69.5t66 22.5h127q273 -1 273 -269v-397q0 -84 29 -108q25 -27 71 -27q45 0 74 -29q25 -31 25 -69 q0 -41 -25 -70t-74 -29q-47 0 -73.5 -26.5t-26.5 -108.5v-397q0 -139 -70.5 -203.5t-202.5 -64.5h-127q-92 0 -92 92z" />
<glyph unicode="~" horiz-adv-x="1234" d="M84 440q0 104 84 187.5t227 83.5q84 0 235.5 -70t200.5 -70q57 0 123 62.5t105 62.5q45 0 66.5 -27.5t21.5 -72.5q0 -102 -86 -186t-225 -84q-82 0 -234.5 69.5t-202.5 69.5q-55 0 -120.5 -62.5t-106.5 -62.5q-43 0 -65.5 28.5t-22.5 71.5z" />
<glyph unicode="&#xa1;" horiz-adv-x="688" d="M182 954q0 66 47 113t113 47t113 -47t47 -113t-47 -112.5t-113 -46.5t-113 47t-47 112zM195 -254v789q0 66 40.5 102.5t106.5 36.5q63 0 107 -37q41 -41 40 -102v-789q0 -59 -41.5 -99t-105.5 -40q-66 0 -104 39q-43 37 -43 100z" />
<glyph unicode="&#xa2;" horiz-adv-x="952" d="M41 551q0 211 122 367.5t324 187.5v57q0 43 5.5 70t52.5 27q37 0 46 -23t9 -74v-49q111 0 221.5 -47t110.5 -139q0 -53 -31 -99.5t-82 -46.5q-27 0 -105.5 30t-113.5 30v-596q39 0 92 20l113 41q53 0 90 -37t37 -92q0 -96 -110.5 -149.5t-221.5 -53.5v-47 q0 -59 -12.5 -77.5t-42.5 -18.5q-39 0 -46 21.5t-9.5 35t-2.5 39.5v56q-207 27 -326.5 184.5t-119.5 382.5zM336 543q0 -86 40.5 -164t110.5 -109v551q-74 -31 -112.5 -106.5t-38.5 -171.5z" />
<glyph unicode="&#xa3;" horiz-adv-x="1257" d="M33 727q0 63 41 102t106 39h43q-20 41 -36.5 106.5t-16.5 110.5q0 178 150.5 288t367.5 110q219 0 368.5 -100.5t149.5 -254.5q0 -70 -46 -112.5t-113 -42.5q-61 0 -146.5 107.5t-200.5 107.5q-82 0 -140 -41t-58 -117q0 -66 28 -108l31 -54h311q66 0 107 -36.5 t41 -104.5q0 -66 -39 -103.5t-109 -37.5h-264q0 -160 -106 -303h571q66 0 107 -37t41 -105q0 -66 -39 -103.5t-109 -37.5h-805q-74 0 -116.5 43t-42.5 117q0 18 89 147t89 279h-107q-66 0 -106.5 36.5t-40.5 104.5z" />
<glyph unicode="&#xa4;" horiz-adv-x="1234" d="M53 279q0 18 15 34l14 13l119 118q-94 106 -95 285q0 88 23 164t72 125l-119 119l-14 20l-15 27q0 27 6 43l19 30q12 16 31.5 24.5t37.5 8.5q37 0 60 -24l117 -117q51 41 128.5 65.5t163.5 24.5q82 0 159 -24.5t132 -65.5l117 117q23 25 59 24l39 -6q18 -8 33 -27l19 -36 l4 -37q0 -18 -15 -35l-14 -12l-119 -119q45 -41 69.5 -124t24.5 -165q0 -178 -94 -285l119 -118l18 -21q10 -16 11 -26l-4 -35l-19 -37q-14 -18 -33.5 -26.5t-38.5 -8.5q-37 0 -59 25l-117 120q-102 -94 -291 -94q-88 0 -166.5 25.5t-125.5 68.5l-117 -120q-23 -25 -60 -25 q-23 0 -40 7t-30.5 26.5t-17.5 36.5zM352 729q0 -117 74 -194.5t190 -77.5q109 0 186 76.5t77 195.5t-76 198t-187 79q-117 0 -190.5 -78t-73.5 -199z" />
<glyph unicode="&#xa5;" d="M20 1321q0 59 42 104t106 45q33 0 72 -17t55 -44l295 -428l293 428q25 31 58.5 46t68.5 15q66 0 96.5 -32.5t40.5 -57t10 -59.5q0 -51 -29 -92l-260 -361h166q37 0 70 -22q29 -25 29 -64q0 -37 -29 -61.5t-70 -24.5h-291v-139h291q37 0 70 -22q29 -25 29 -64 q0 -37 -29 -61.5t-70 -24.5h-291v-248q0 -63 -38.5 -106t-114.5 -43q-82 0 -119 41.5t-37 107.5v248h-291q-39 0 -68.5 23.5t-29.5 62.5q0 37 28.5 61.5t69.5 24.5h291v139h-291q-39 0 -68.5 23.5t-29.5 62.5q0 37 28.5 61.5t69.5 24.5h166l-260 361q-29 41 -29 92z" />
<glyph unicode="&#xa6;" horiz-adv-x="456" d="M104 98v398q0 55 34 88.5t89 33.5q57 0 90 -32.5t33 -89.5v-398q0 -55 -33.5 -89t-89.5 -34q-57 0 -90 33t-33 90zM104 1057v397q0 55 34 89t89 34q57 0 90 -33t33 -90v-397q0 -55 -33.5 -89t-89.5 -34q-57 0 -90 33t-33 90z" />
<glyph unicode="&#xa7;" d="M41 530q0 115 43 195t139 158q-51 59 -73.5 104t-22.5 111q0 178 128 281.5t320 103.5q170 0 338 -75.5t168 -227.5q0 -59 -38.5 -102.5t-98.5 -43.5q-39 0 -149.5 89t-182.5 89q-59 0 -106 -39.5t-47 -101.5q0 -72 114 -117l273 -114q160 -66 225.5 -148t65.5 -182 q0 -127 -51.5 -207t-165.5 -158q47 -59 67.5 -106t20.5 -109q0 -174 -126 -275t-307 -101q-184 0 -346.5 95t-162.5 214q0 63 48 108t115 45q49 0 133 -96t177 -96q57 0 103 31.5t46 85.5q0 76 -57.5 106.5t-239.5 102t-266 151.5t-84 229zM348 565q0 -51 27 -80 q23 -30 78 -57l260 -109q47 27 75.5 62t28.5 88q0 49 -41 89t-110 65l-228 88q-33 -25 -61.5 -57.5t-28.5 -88.5z" />
<glyph unicode="&#xa8;" horiz-adv-x="456" d="M-145 1382q0 61 43 104.5t104 43.5t104.5 -43t43.5 -105q0 -61 -43.5 -104t-104.5 -43t-104 43t-43 104zM305 1382q0 61 43.5 104.5t104.5 43.5q63 0 106 -43t43 -105q0 -61 -43 -104t-106 -43q-61 0 -104.5 43t-43.5 104z" />
<glyph unicode="&#xa9;" horiz-adv-x="1646" d="M66 729q0 311 221 532.5t534 221.5q311 0 533.5 -222.5t222.5 -531.5t-222 -531.5t-534 -222.5q-313 0 -534 221.5t-221 532.5zM250 729q0 -238 167.5 -403.5t403.5 -165.5q238 0 404 166t166 403q0 238 -166 403.5t-404 165.5q-236 0 -403.5 -165.5t-167.5 -403.5z M418 729q0 184 111.5 303t297.5 119q150 0 252.5 -83t102.5 -161q0 -57 -15.5 -79.5t-66.5 -30.5q-37 0 -58.5 15.5t-52.5 76.5q-25 37 -56.5 57.5t-105.5 20.5q-186 0 -186 -238q0 -109 46 -173t140 -64q72 0 107 22.5t55 54.5q25 53 42.5 73t68.5 20q51 -10 66.5 -32 t15.5 -79q0 -76 -104.5 -160t-250.5 -84q-186 0 -297.5 119t-111.5 303z" />
<glyph unicode="&#xaa;" horiz-adv-x="768" d="M27 1141q0 145 92 243.5t225 98.5q55 0 101.5 -19.5t82.5 -60.5q0 35 21.5 57.5t71.5 22.5q49 0 69.5 -31t20.5 -80v-481q0 -39 -18.5 -64.5t-71.5 -25.5q-45 0 -69 23.5t-24 56.5q-29 -25 -41 -35t-45.5 -27.5t-83.5 -17.5q-147 0 -239 95t-92 245zM223 1141 q0 -72 37 -126t111 -54q70 0 105.5 53t35.5 127q0 70 -36 126t-105 56q-74 0 -111 -53t-37 -129z" />
<glyph unicode="&#xab;" horiz-adv-x="1028" d="M76 584q0 29 14 55l35 59l199 281q31 35 88 35q53 0 86.5 -33t33.5 -80l-4 -39q-2 -20 -20 -39l-162 -248l162 -243q16 -16 20 -35l4 -35q0 -57 -34.5 -93t-89.5 -36q-70 0 -103 51l-211 326q-10 16 -14 37zM494 584q0 29 14 55l37 59l198 281q31 35 88 35q53 0 86 -33 t33 -80l-4 -39q-2 -20 -18 -39l-162 -248l162 -243q14 -18 18 -35l4 -35q0 -57 -33.5 -93t-89.5 -36q-70 0 -102 51l-213 326q-10 16 -14 37z" />
<glyph unicode="&#xac;" horiz-adv-x="1234" d="M72 748q0 55 34 88.5t89 33.5h841q57 0 90 -32.5t33 -89.5v-465q0 -55 -33.5 -89t-89.5 -34q-57 0 -90 32.5t-33 90.5v342h-718q-57 0 -90 32.5t-33 90.5z" />
<glyph unicode="&#xad;" horiz-adv-x="800" d="M63 592q0 57 31 94t86 37h438q55 0 86 -37t31 -94t-29.5 -92t-87.5 -35h-438q-53 0 -84 37q-33 33 -33 90z" />
<glyph unicode="&#xae;" horiz-adv-x="1646" d="M66 729q0 311 221 532.5t534 221.5q311 0 533.5 -222.5t222.5 -531.5t-222 -531.5t-534 -222.5q-313 0 -534 221.5t-221 532.5zM250 729q0 -238 167.5 -403.5t403.5 -165.5q238 0 404 166t166 403q0 238 -166 403.5t-404 165.5q-236 0 -403.5 -165.5t-167.5 -403.5z M518 406v632q0 43 18.5 64.5t75.5 21.5h232q141 0 223 -51t82 -188q0 -106 -53.5 -166t-151.5 -60l146 -237q12 -25 12 -43q0 -72 -96 -72q-41 0 -62.5 24.5t-50.5 74.5l-129 241h-62v-241q0 -49 -20 -74t-72 -25q-92 0 -92 99zM702 795h154q55 0 82 18t27 72q0 53 -28 72.5 t-81 19.5h-154v-182z" />
<glyph unicode="&#xaf;" horiz-adv-x="456" d="M-96 1372q0 57 36 90t97 33h381q59 0 97 -34t38 -89q0 -123 -135 -123h-381q-133 0 -133 123z" />
<glyph unicode="&#xb0;" horiz-adv-x="823" d="M80 1153q0 137 96.5 233.5t233.5 96.5q139 0 235 -96.5t96 -233.5t-96 -233.5t-235 -96.5q-137 0 -233.5 96.5t-96.5 233.5zM240 1153q0 -70 50 -120t120 -50t121 50t51 120q0 68 -50 121q-55 49 -122 49q-70 0 -120 -50t-50 -120z" />
<glyph unicode="&#xb1;" horiz-adv-x="1234" d="M72 123q0 55 34 89t89 34h841q57 0 90 -33t33 -90q0 -55 -33.5 -89t-89.5 -34h-841q-57 0 -90 33t-33 90zM72 684q0 55 33.5 89t89.5 34h297v131q0 55 34.5 89t89.5 34q57 0 90 -33t33 -90v-131h297q57 0 90 -33t33 -90q0 -55 -33.5 -89t-89.5 -34h-297v-131 q0 -55 -33.5 -89t-89.5 -34q-57 0 -90.5 33t-33.5 90v131h-297q-57 0 -90 33t-33 90z" />
<glyph unicode="&#xb2;" horiz-adv-x="768" d="M59 676q0 16 11 33l30 41l140 147q113 119 158.5 181.5t57 86t11.5 54.5q0 37 -25.5 58t-68.5 21q-78 0 -113 -92t-96 -92q-96 0 -96 115q0 82 89 168t224 86q131 0 214 -71t83 -183q0 -109 -111 -248l-161 -176h210q45 0 68 -22.5t23 -82.5q0 -57 -24 -80.5t-67 -23.5 h-460q-43 0 -70 19.5t-27 60.5z" />
<glyph unicode="&#xb3;" horiz-adv-x="768" d="M53 811q0 35 33 58.5t70 23.5q35 0 88 -62q49 -63 129 -63q57 0 93 27.5t36 66.5q0 53 -31 76t-88 31t-83 21.5t-26 62.5q0 45 17.5 57t33 17.5t53.5 13.5t61.5 25.5t23.5 64.5q0 68 -90 67q-47 0 -105.5 -52t-99.5 -52q-43 0 -64.5 27.5t-21.5 62.5q0 84 98.5 141.5 t192.5 57.5q113 0 201 -61.5t88 -161.5q0 -121 -113 -189q76 -33 120 -91t44 -130q0 -129 -100.5 -197.5t-239.5 -68.5q-115 0 -217.5 64.5t-102.5 162.5z" />
<glyph unicode="&#xb4;" horiz-adv-x="456" d="M-25 1374q0 51 58 82l16 8l242 99q49 20 78 20q43 0 76.5 -41t33.5 -86q0 -90 -84 -121l-229 -90l-47 -18l-35 -2q-45 0 -77 46t-32 103z" />
<glyph unicode="&#xb5;" horiz-adv-x="1144" d="M84 -283v1221q0 72 40 118t107 46q68 0 108 -46t40 -118v-526q0 -86 54 -138.5t138 -52.5q76 0 133.5 51.5t57.5 139.5v526q0 72 40 118t107 46q68 0 108 -46t40 -118v-786q0 -72 -40 -118t-108 -46t-107.5 37.5t-39.5 103.5q-35 -78 -86 -116t-107 -38q-49 0 -103 30 t-83 73l-4 -361q0 -72 -40 -117.5t-108 -45.5t-107.5 45.5t-39.5 117.5z" />
<glyph unicode="&#xb6;" horiz-adv-x="1275" d="M31 1094q0 205 133 284.5t373 79.5h520q57 0 90 -32.5t33 -90.5v-1646q0 -55 -34 -89t-89 -34q-57 0 -90 32.5t-33 90.5v1585h-199v-1585q0 -55 -33.5 -89t-89.5 -34q-57 0 -91 33t-34 90v1054q-221 0 -338.5 90.5t-117.5 260.5z" />
<glyph unicode="&#xb7;" horiz-adv-x="552" d="M115 575q0 66 47 113t112 47q66 0 113 -47t47 -113t-47 -112.5t-113 -46.5t-112.5 47t-46.5 112z" />
<glyph unicode="&#xb8;" horiz-adv-x="456" d="M90 -344q0 53 49 53l43 -10q37 -10 56 -10q31 0 49 12t18 45q0 37 -18.5 47t-50.5 10l-58 11q-12 4 -12 36q0 12 12 35l33 47l49 68h123l-80 -104l45 6q63 0 111 -41q43 -43 43 -115q0 -92 -71 -142t-157 -50q-66 0 -125 21.5t-59 80.5z" />
<glyph unicode="&#xb9;" horiz-adv-x="493" d="M20 1368q0 45 25 73.5t66 28.5h190q39 0 66 -22q23 -27 22 -64v-710q0 -39 -26.5 -64.5t-77.5 -25.5q-47 0 -76 24.5t-29 65.5v588h-69q-90 0 -91 106z" />
<glyph unicode="&#xba;" horiz-adv-x="743" d="M27 1141q0 137 98 239.5t246 102.5q154 0 249 -101.5t95 -240.5q0 -143 -94.5 -241.5t-249.5 -98.5q-152 0 -248 99t-96 241zM223 1141q0 -74 39 -125q37 -55 109 -55q66 0 106.5 54t40.5 126q0 70 -37 126t-110 56q-72 0 -110 -54.5t-38 -127.5z" />
<glyph unicode="&#xbb;" horiz-adv-x="1028" d="M76 246l4 41q4 19 18 37l162 251l-162 240q-14 18 -18 35l-4 35q0 57 33.5 93t89.5 36q70 0 102 -51l211 -326q16 -18 18 -37l2 -37q0 -27 -12 -55l-39 -59l-198 -281q-31 -35 -88 -35q-53 0 -86 33t-33 80zM494 246l4 41q4 21 20 37l162 251l-162 240q-16 16 -20 35 l-4 35q0 57 34.5 93t89.5 36q70 0 103 -51l211 -326q14 -20 16 -37l2 -37q0 -27 -12 -55l-37 -59l-199 -281q-31 -35 -88 -35q-53 0 -86.5 33t-33.5 80z" />
<glyph unicode="&#xbc;" horiz-adv-x="1773" d="M74 1368q0 45 24.5 73.5t65.5 28.5h190q39 0 66 -22q23 -27 22 -64v-710q0 -39 -26.5 -64.5t-77.5 -25.5q-47 0 -76 24.5t-29 65.5v588h-69q-90 0 -90 106zM311 76l6 39l15 37l680 1278q35 66 94 65q51 0 86 -34t35 -81q0 -29 -17 -61l-688 -1288l-39 -49 q-16 -18 -55 -19q-39 0 -78 34t-39 79zM956 254l7 31q4 18 12 30l297 500q23 37 47 50.5t45.5 17.5t52.5 4q72 0 118 -39t46 -119v-362h21q92 0 92 -97q0 -49 -26 -74.5t-66 -25.5h-21v-92q0 -90 -106 -90q-104 0 -105 90v92h-334q-41 0 -60.5 23.5t-19.5 60.5zM1194 367 h176v313z" />
<glyph unicode="&#xbd;" horiz-adv-x="1773" d="M74 1368q0 45 24.5 73.5t65.5 28.5h190q39 0 66 -22q23 -27 22 -64v-710q0 -39 -26.5 -64.5t-77.5 -25.5q-47 0 -76 24.5t-29 65.5v588h-69q-90 0 -90 106zM311 76l6 39l15 37l680 1278q35 66 94 65q51 0 86 -34t35 -81q0 -29 -17 -61l-688 -1288l-39 -49 q-16 -18 -55 -19q-39 0 -78 34t-39 79zM1047 82q0 16 10 33l30 41l140 147q113 119 159 181.5t57 86t11 54.5q0 37 -26.5 57t-67.5 20q-78 0 -113 -91t-96 -91q-96 0 -96 115q0 82 88 167t225 85q123 0 213 -68q84 -72 84 -184q0 -109 -111 -248l-161 -178h204q37 0 68 -31 q29 -35 29 -78q0 -55 -21.5 -77.5t-62.5 -22.5h-467q-43 0 -69.5 20.5t-26.5 61.5z" />
<glyph unicode="&#xbe;" horiz-adv-x="1773" d="M47 811q0 35 33 58.5t70 23.5q35 0 88 -62q49 -63 129 -63q57 0 93 27.5t36 66.5q0 53 -31 76t-88.5 31t-83 21.5t-25.5 62.5q0 45 17.5 57t33 17.5t53.5 13.5t61.5 25.5t23.5 64.5q0 68 -90 67q-47 0 -105.5 -52t-99.5 -52q-43 0 -64.5 27.5t-21.5 62.5q0 84 98 141.5 t193 57.5q111 0 199.5 -61.5t88.5 -161.5q0 -121 -112 -189q76 -33 120 -91t44 -130q0 -129 -100.5 -197.5t-239.5 -68.5q-115 0 -217.5 64.5t-102.5 162.5zM467 76l6 39l14 37l680 1278q35 66 95 65q51 0 85.5 -34t34.5 -81q0 -29 -16 -61l-688 -1288l-37 -49 q-16 -18 -55 -19q-39 0 -79 34t-40 79zM983 254l6 31q4 18 12 30l297 500q23 37 47.5 50.5t46 17.5t52.5 4q72 0 118 -39t46 -119v-362h20q92 0 92 -97q0 -49 -25.5 -74.5t-66.5 -25.5h-20v-92q0 -90 -107 -90q-104 0 -104 90v92h-334q-41 0 -60.5 23.5t-19.5 60.5z M1221 367h176v313z" />
<glyph unicode="&#xbf;" horiz-adv-x="989" d="M35 45q0 166 95 270.5t259 143.5v73q0 61 41 101.5t109 40.5t107.5 -38t39.5 -104v-204q0 -49 -37 -66.5t-123 -41t-129 -58.5t-43 -117q0 -66 51.5 -111t120.5 -45q92 0 181.5 101.5t148.5 101.5t92 -39t33 -108q0 -147 -146.5 -242.5t-308.5 -95.5q-211 0 -351 119.5 t-140 318.5zM377 954q0 66 47 113t115 47q66 0 112.5 -47t46.5 -113t-47 -112.5t-112 -46.5q-68 0 -115 47t-47 112z" />
<glyph unicode="&#xc0;" horiz-adv-x="1296" d="M4 131l6 45l8 23l412 1114q29 78 87 124t134 46q82 0 137.5 -46t81.5 -124l402 -1114l12 -41l4 -35q0 -61 -41 -98t-100 -37q-61 0 -98 28.5t-52 77.5l-61 193h-571l-62 -191q-14 -49 -50 -78.5t-97 -29.5q-59 0 -105.5 40t-46.5 103zM395 1772q0 47 35 86.5t76 39.5 q31 0 80 -20l241 -98l17 -8q57 -33 57 -82q0 -55 -31 -105q-37 -47 -77 -47q-35 0 -48 6l-34 17l-232 90q-84 29 -84 121zM453 569h391l-191 594z" />
<glyph unicode="&#xc1;" horiz-adv-x="1296" d="M4 131l6 45l8 23l412 1114q29 78 87 124t134 46q82 0 137.5 -46t81.5 -124l402 -1114l12 -41l4 -35q0 -61 -41 -98t-100 -37q-61 0 -98 28.5t-52 77.5l-61 193h-571l-62 -191q-14 -49 -50 -78.5t-97 -29.5q-59 0 -105.5 40t-46.5 103zM395 1690q0 49 58 82l16 8l244 98 q49 20 78 20q41 0 75.5 -40.5t34.5 -85.5q0 -92 -84 -121l-229 -90l-47 -21l-37 -2q-43 0 -76 47t-33 105zM453 569h391l-191 594z" />
<glyph unicode="&#xc2;" horiz-adv-x="1296" d="M4 131l6 45l8 23l412 1114q29 78 87 124t134 46q82 0 137.5 -46t81.5 -124l402 -1114l12 -41l4 -35q0 -61 -41 -98t-100 -37q-61 0 -98 28.5t-52 77.5l-61 193h-571l-62 -191q-14 -49 -50 -78.5t-97 -29.5q-59 0 -105.5 40t-46.5 103zM336 1665q0 94 94 127l219 86 l217 -86q27 -10 40.5 -19.5t31.5 -27.5q23 -33 23 -80t-38 -88t-87 -41q-20 0 -35 6l-72 31l-80 35l-80 -35l-61 -27q-27 -10 -47 -10q-47 0 -86 40t-39 89zM453 569h391l-191 594z" />
<glyph unicode="&#xc3;" horiz-adv-x="1296" d="M4 131l6 45l8 23l412 1114q29 78 87 124t134 46q82 0 137.5 -46t81.5 -124l402 -1114l12 -41l4 -35q0 -61 -41 -98t-100 -37q-61 0 -98 28.5t-52 77.5l-61 193h-571l-62 -191q-14 -49 -50 -78.5t-97 -29.5q-59 0 -105.5 40t-46.5 103zM307 1661q0 78 54.5 128t140.5 50 q61 0 137 -22q31 -12 59.5 -19.5t34.5 -7.5q23 0 76 31q63 27 84 26q43 0 72 -30q25 -37 24 -82q0 -72 -63.5 -125.5t-137.5 -53.5q-35 0 -131 25l-100 27q-25 0 -68 -29q-47 -27 -79 -27q-35 0 -69 35t-34 74zM453 569h391l-191 594z" />
<glyph unicode="&#xc4;" horiz-adv-x="1296" d="M4 131l6 45l8 23l412 1114q29 78 87 124t134 46q82 0 137.5 -46t81.5 -124l402 -1114l12 -41l4 -35q0 -61 -41 -98t-100 -37q-61 0 -98 28.5t-52 77.5l-61 193h-571l-62 -191q-14 -49 -50 -78.5t-97 -29.5q-59 0 -105.5 40t-46.5 103zM274 1698q0 61 42.5 103t105.5 42 q37 0 58.5 -8t56 -42t34.5 -95t-46 -105.5t-103 -44.5q-59 0 -103.5 44t-44.5 106zM453 569h391l-191 594zM727 1698q0 61 42 103t105 42q37 0 58.5 -8t55.5 -42t34 -95t-44 -105.5t-104 -44.5q-59 0 -103 44t-44 106z" />
<glyph unicode="&#xc5;" horiz-adv-x="1296" d="M4 131l6 45l8 23l412 1114q29 78 87 124t134 46q82 0 137.5 -46t81.5 -124l402 -1114l12 -41l4 -35q0 -61 -41 -98t-100 -37q-61 0 -98 28.5t-52 77.5l-61 193h-571l-62 -191q-14 -49 -50 -78.5t-97 -29.5q-59 0 -105.5 40t-46.5 103zM444 1704q0 82 62.5 142.5 t142.5 60.5q82 0 142.5 -60.5t60.5 -142.5q0 -84 -60.5 -144.5t-142.5 -60.5q-39 0 -76.5 16.5t-83 60.5t-45.5 128zM453 569h391l-191 594zM557 1704q0 -39 26.5 -65.5t65.5 -26.5t65.5 26.5t26.5 65.5q0 37 -25.5 63.5t-66.5 26.5t-66.5 -26.5t-25.5 -63.5z" />
<glyph unicode="&#xc6;" horiz-adv-x="1714" d="M-8 117l4 47l24 51l637 1174q23 41 54.5 55t89.5 14h719q70 0 110 -41q37 -43 37 -100t-40 -99t-107 -42h-361v-299h336q72 0 112 -40t40 -102q0 -59 -40 -100t-112 -41h-336v-311h379q70 0 111 -41q37 -43 37 -101q0 -57 -40 -99t-108 -42h-528q-70 0 -113 43 q-45 39 -45 111v102h-471l-96 -168q-27 -45 -62 -72.5t-84 -27.5q-59 0 -102 37q-45 33 -45 92zM524 532h328v594z" />
<glyph unicode="&#xc7;" horiz-adv-x="1257" d="M35 729q0 324 196.5 539t509.5 215q150 0 295.5 -54.5t145.5 -175.5q0 -55 -36 -96t-91 -41q-33 0 -125 37q-98 35 -189 35q-180 0 -283.5 -133t-103.5 -332q0 -190 103.5 -321.5t283.5 -131.5q82 0 203 43l123 43q63 0 99 -47t36 -92q0 -131 -113.5 -173t-186 -55.5 t-150.5 -13.5l-62 -79l45 6q59 0 111 -41q43 -43 43 -115q0 -92 -70.5 -142t-156.5 -50q-66 0 -126.5 21.5t-60.5 80.5q0 53 51 53l43 -10q37 -10 56 -10q31 0 48 12t17 45q0 37 -17.5 47t-49.5 10l-58 11q-12 4 -12 36q0 12 12 35l33 47l35 50q-242 35 -420 229.5 t-178 517.5z" />
<glyph unicode="&#xc8;" horiz-adv-x="952" d="M92 154v1126q0 78 41 128t119 50h510q68 0 108 -41q37 -43 37 -100t-40 -99t-105 -42h-363v-299h338q70 0 110 -40t40 -102q0 -59 -40 -100t-110 -41h-338v-311h381q68 0 109 -41q37 -43 37 -101q0 -57 -40 -99t-106 -42h-530q-70 0 -113 43q-45 39 -45 111zM219 1772 q0 20 8.5 43.5t25.5 42t36.5 29.5t42.5 11q29 0 78 -20l241 -98l19 -8q57 -35 57 -82q0 -57 -32.5 -104.5t-78.5 -47.5q-35 0 -47 6l-34 17l-232 90q-84 29 -84 121z" />
<glyph unicode="&#xc9;" horiz-adv-x="952" d="M92 154v1126q0 78 41 128t119 50h510q68 0 108 -41q37 -43 37 -100t-40 -99t-105 -42h-363v-299h338q70 0 110 -40t40 -102q0 -59 -40 -100t-110 -41h-338v-311h381q68 0 109 -41q37 -43 37 -101q0 -57 -40 -99t-106 -42h-530q-70 0 -113 43q-45 39 -45 111zM219 1690 q0 49 57 82l19 8l242 98q49 20 77 20q41 0 77 -40.5t36 -85.5q0 -92 -86 -121l-231 -90l-48 -21l-34 -2q-43 0 -74 47q-35 47 -35 105z" />
<glyph unicode="&#xca;" horiz-adv-x="952" d="M92 154v1126q0 78 41 128t119 50h510q68 0 108 -41q37 -43 37 -100t-40 -99t-105 -42h-363v-299h338q70 0 110 -40t40 -102q0 -59 -40 -100t-110 -41h-338v-311h381q68 0 109 -41q37 -43 37 -101q0 -57 -40 -99t-106 -42h-530q-70 0 -113 43q-45 39 -45 111zM162 1665 q0 94 94 127l215 86l219 -86q25 -8 39 -18.5t35 -28.5q20 -35 20 -80q0 -47 -26.5 -76.5t-50 -41t-48.5 -11.5q-18 0 -34 6l-70 31l-84 35l-80 -35l-57 -27q-29 -10 -47 -10q-51 0 -86 41q-39 37 -39 88z" />
<glyph unicode="&#xcb;" horiz-adv-x="952" d="M92 154v1126q0 78 41 128t119 50h510q68 0 108 -41q37 -43 37 -100t-40 -99t-105 -42h-363v-299h338q70 0 110 -40t40 -102q0 -59 -40 -100t-110 -41h-338v-311h381q68 0 109 -41q37 -43 37 -101q0 -57 -40 -99t-106 -42h-530q-70 0 -113 43q-45 39 -45 111zM98 1698 q0 59 42 102t108 43q61 0 102 -43q43 -37 43 -102q0 -37 -8 -58.5t-44 -56.5t-93 -35q-61 0 -105.5 46t-44.5 104zM553 1698q0 37 8 58.5t35 43.5q36 43 102 43q37 0 58.5 -8t56.5 -43t35 -94q0 -57 -43 -105q-49 -45 -107 -45q-61 0 -102 45q-43 41 -43 105z" />
<glyph unicode="&#xcc;" horiz-adv-x="493" d="M-141 1804q0 47 34.5 87t75.5 40q29 0 78 -20l242 -99l18 -8q57 -33 58 -82q0 -55 -31 -104q-37 -47 -80 -47q-35 0 -47 6l-35 16l-229 90q-84 29 -84 121zM92 147v1164q0 76 42 117.5t112 41.5q66 0 109.5 -40.5t43.5 -118.5v-1164q0 -76 -42 -117.5t-111 -41.5 q-66 0 -110 40.5t-44 118.5z" />
<glyph unicode="&#xcd;" horiz-adv-x="493" d="M80 1690q0 49 57 82l17 8l241 98q49 20 78 20q43 0 78 -40.5t35 -85.5q0 -92 -86 -121l-230 -90l-47 -21l-35 -2q-43 0 -75.5 47t-32.5 105zM92 147v1164q0 76 42 117.5t112 41.5q66 0 109.5 -40.5t43.5 -118.5v-1164q0 -76 -42 -117.5t-111 -41.5q-66 0 -110 40.5 t-44 118.5z" />
<glyph unicode="&#xce;" horiz-adv-x="493" d="M-57 1665q0 92 94 127l217 86l219 -86q27 -10 40 -19.5t32 -27.5q23 -33 22 -80q0 -47 -37.5 -88t-87.5 -41q-20 0 -32 6l-76 31l-80 35l-80 -35l-59 -27q-27 -10 -47 -10q-47 0 -86 40t-39 89zM92 147v1164q0 76 42 117.5t112 41.5q66 0 109.5 -40.5t43.5 -118.5v-1164 q0 -76 -42 -117.5t-111 -41.5q-66 0 -110 40.5t-44 118.5z" />
<glyph unicode="&#xcf;" horiz-adv-x="493" d="M-131 1698q0 59 41.5 102t107.5 43q61 0 103 -43q43 -37 43 -102q0 -37 -8.5 -58.5t-44 -56.5t-93.5 -35q-61 0 -105 46t-44 104zM92 147v1164q0 76 42 117.5t112 41.5q66 0 109.5 -40.5t43.5 -118.5v-1164q0 -76 -42 -117.5t-111 -41.5q-66 0 -110 40.5t-44 118.5z M324 1698q0 37 8 58.5t35 43.5q36 43 102 43q37 0 58.5 -8t56 -43t34.5 -94q0 -57 -43 -105q-49 -45 -106 -45q-61 0 -102 45q-43 41 -43 105z" />
<glyph unicode="&#xd0;" horiz-adv-x="1372" d="M-92 739q0 49 33.5 83t95.5 34h55v444q0 72 43 115t115 43h342q342 0 484.5 -151.5t189.5 -286.5t47 -311q0 -322 -190.5 -515.5t-510.5 -193.5h-358q-61 0 -111.5 37t-50.5 117v469h-55q-59 0 -94 34.5t-35 81.5zM399 283h209q190 0 287.5 123.5t97.5 316.5 q0 209 -101 331t-304 122h-189v-320h170q63 0 96 -32.5t33 -84.5q0 -49 -33.5 -82.5t-95.5 -33.5h-170v-340z" />
<glyph unicode="&#xd1;" horiz-adv-x="1409" d="M80 147v1164q0 76 42 117.5t111 41.5q29 0 70 -18q37 -20 59 -49l652 -866l4 774q0 76 42 117.5t111 41.5q66 0 110 -40.5t44 -118.5v-1164q0 -76 -42 -117.5t-112 -41.5q-33 0 -67 20q-39 18 -62 47l-651 856l-4 -764q0 -76 -42 -117.5t-112 -41.5q-66 0 -109.5 40.5 t-43.5 118.5zM377 1661q0 78 54 128t142 50q33 0 61 -4t75 -18q31 -12 59.5 -19.5t34.5 -7.5q23 0 76 31q63 27 84 26q43 0 71 -30q25 -37 25 -82q0 -72 -63.5 -125.5t-137.5 -53.5q-35 0 -131 25l-100 27q-25 0 -66 -29q-47 -27 -82 -27t-68.5 35t-33.5 74z" />
<glyph unicode="&#xd2;" horiz-adv-x="1484" d="M35 729q0 324 196.5 539t509.5 215q303 0 504 -219.5t201 -534.5q0 -324 -196.5 -539t-508.5 -215q-311 0 -508.5 215t-197.5 539zM354 729q0 -203 101.5 -337t285.5 -134t284.5 135t100.5 336q0 197 -100 334t-285 137q-182 0 -284.5 -134t-102.5 -337zM500 1772 q0 20 8 43.5t35.5 53t68.5 29.5q29 0 78 -20l242 -98l16 -8q57 -33 58 -82q0 -55 -31 -105q-37 -47 -78 -47q-35 0 -47 6l-35 17l-229 90q-86 29 -86 121z" />
<glyph unicode="&#xd3;" horiz-adv-x="1484" d="M35 729q0 324 196.5 539t509.5 215q303 0 504 -219.5t201 -534.5q0 -324 -196.5 -539t-508.5 -215q-311 0 -508.5 215t-197.5 539zM354 729q0 -203 101.5 -337t285.5 -134t284.5 135t100.5 336q0 197 -100 334t-285 137q-182 0 -284.5 -134t-102.5 -337zM500 1690 q0 47 59 82l16 8l242 98q49 20 78 20q41 0 76 -40.5t35 -85.5q0 -92 -84 -121l-230 -90l-47 -21l-35 -2q-43 0 -76.5 47t-33.5 105z" />
<glyph unicode="&#xd4;" horiz-adv-x="1484" d="M35 729q0 324 196.5 539t509.5 215q303 0 504 -219.5t201 -534.5q0 -324 -196.5 -539t-508.5 -215q-311 0 -508.5 215t-197.5 539zM354 729q0 -203 101.5 -337t285.5 -134t284.5 135t100.5 336q0 197 -100 334t-285 137q-182 0 -284.5 -134t-102.5 -337zM440 1665 q1 94 97 127l217 86l217 -86q27 -10 40 -19.5t31 -27.5q23 -33 23 -80t-38 -88t-87 -41q-20 0 -35 6l-71 31l-80 35l-80 -35l-60 -27q-27 -10 -47 -10q-49 0 -88 40t-39 89z" />
<glyph unicode="&#xd5;" horiz-adv-x="1484" d="M35 729q0 324 196.5 539t509.5 215q303 0 504 -219.5t201 -534.5q0 -324 -196.5 -539t-508.5 -215q-311 0 -508.5 215t-197.5 539zM354 729q0 -203 101.5 -337t285.5 -134t284.5 135t100.5 336q0 197 -100 334t-285 137q-182 0 -284.5 -134t-102.5 -337zM412 1661 q0 78 54 128t142 50q33 0 60.5 -4t74.5 -18q31 -12 59.5 -19.5t35.5 -7.5q23 0 75 31q63 27 84 26q43 0 72 -30q25 -37 25 -82q0 -72 -63.5 -125.5t-137.5 -53.5q-35 0 -131 25l-100 27q-25 0 -66 -29q-47 -27 -80 -27q-37 0 -70.5 35t-33.5 74z" />
<glyph unicode="&#xd6;" horiz-adv-x="1484" d="M35 729q0 324 196.5 539t509.5 215q303 0 504 -219.5t201 -534.5q0 -324 -196.5 -539t-508.5 -215q-311 0 -508.5 215t-197.5 539zM354 729q0 -203 101.5 -337t285.5 -134t284.5 135t100.5 336q0 197 -100 334t-285 137q-182 0 -284.5 -134t-102.5 -337zM379 1698 q0 61 41.5 103t107.5 42q37 0 58.5 -8t55.5 -42t34 -95t-44 -105.5t-104 -44.5q-61 0 -105 44t-44 106zM831 1698q0 61 42.5 103t105.5 42q37 0 58.5 -8t55 -42t33.5 -95t-44 -105.5t-103 -44.5t-103.5 44t-44.5 106z" />
<glyph unicode="&#xd7;" horiz-adv-x="1234" d="M154 180q0 45 39 84l253 254l-253 254q-18 18 -28.5 38.5t-10.5 39.5q0 55 30 84l47 37q14 8 45 8q45 0 84 -39l256 -254l254 254q39 39 84 39q29 0 45 -8l50 -37q29 -29 28 -84q0 -20 -9 -38.5t-30 -39.5l-254 -254l254 -254q39 -39 39 -84q0 -29 -9 -47t-36.5 -47 t-83.5 -29q-20 0 -38.5 9.5t-39.5 29.5l-254 254l-256 -254q-18 -18 -38.5 -28.5t-38.5 -10.5q-53 0 -82 31l-37 47q-10 16 -10 45z" />
<glyph unicode="&#xd8;" horiz-adv-x="1484" d="M0 55q0 18 8 33l21 31l143 145q-137 199 -137 465q0 324 196.5 539t509.5 215q135 0 248 -39t195 -117l98 98l53 52q25 18 62 18q31 0 57.5 -20.5t26.5 -51.5q0 -45 -21 -67l-155 -160q68 -102 104.5 -218t36.5 -249q0 -324 -196.5 -539t-508.5 -215q-131 0 -221 32 t-135 56.5t-92 67.5l-127 -129q-33 -39 -80 -39q-29 0 -57.5 28.5t-28.5 63.5zM354 729q0 -133 43 -229l582 614q-49 45 -103.5 65.5t-134.5 20.5q-182 0 -284.5 -134t-102.5 -337zM500 346q90 -88 241 -88q184 0 284.5 135t100.5 336q0 25 -1 46.5t-9 76t-35 111.5z" />
<glyph unicode="&#xd9;" horiz-adv-x="1409" d="M80 580v731q0 76 42 117.5t111 41.5q66 0 110 -40.5t44 -118.5v-715q0 -145 88 -241.5t230 -96.5q135 0 224 97.5t89 240.5v715q0 76 42 117.5t111 41.5q66 0 110 -40.5t44 -118.5v-731q0 -254 -181 -429.5t-439 -175.5q-262 0 -443.5 172.5t-181.5 432.5zM465 1772 q0 47 25.5 75.5t46 39.5t41.5 11q28 0 77 -20l242 -98l16 -8q57 -33 58 -82q0 -55 -31 -105q-37 -47 -78 -47q-35 0 -47 6l-35 17l-229 90q-86 29 -86 121z" />
<glyph unicode="&#xda;" horiz-adv-x="1409" d="M80 580v731q0 76 42 117.5t111 41.5q66 0 110 -40.5t44 -118.5v-715q0 -145 88 -241.5t230 -96.5q135 0 224 97.5t89 240.5v715q0 76 42 117.5t111 41.5q66 0 110 -40.5t44 -118.5v-731q0 -254 -181 -429.5t-439 -175.5q-262 0 -443.5 172.5t-181.5 432.5zM465 1690 q0 49 59 82l17 8l241 98q49 20 78 20q41 0 76 -40.5t35 -85.5q0 -92 -84 -121l-230 -90l-47 -21l-35 -2q-41 0 -77 47q-33 47 -33 105z" />
<glyph unicode="&#xdb;" horiz-adv-x="1409" d="M80 580v731q0 76 42 117.5t111 41.5q66 0 110 -40.5t44 -118.5v-715q0 -145 88 -241.5t230 -96.5q135 0 224 97.5t89 240.5v715q0 76 42 117.5t111 41.5q66 0 110 -40.5t44 -118.5v-731q0 -254 -181 -429.5t-439 -175.5q-262 0 -443.5 172.5t-181.5 432.5zM406 1665 q0 94 94 127l219 86l217 -86q27 -10 40 -19.5t32 -27.5q23 -33 22 -80q0 -47 -38 -88t-87 -41q-20 0 -35 6l-71 31l-80 35l-80 -35l-59 -27q-27 -10 -48 -10q-49 0 -87.5 40t-38.5 89z" />
<glyph unicode="&#xdc;" horiz-adv-x="1409" d="M80 580v731q0 76 42 117.5t111 41.5q66 0 110 -40.5t44 -118.5v-715q0 -145 88 -241.5t230 -96.5q135 0 224 97.5t89 240.5v715q0 76 42 117.5t111 41.5q66 0 110 -40.5t44 -118.5v-731q0 -254 -181 -429.5t-439 -175.5q-262 0 -443.5 172.5t-181.5 432.5zM344 1698 q0 61 42.5 103t105.5 42q66 0 107.5 -42t41.5 -103t-31.5 -93t-58.5 -44.5t-59 -12.5q-59 0 -103.5 44t-44.5 106zM797 1698q0 61 42 103t105 42q37 0 58.5 -8t55.5 -42t34 -95t-44 -105.5t-104 -44.5q-59 0 -103 44t-44 106z" />
<glyph unicode="&#xdd;" horiz-adv-x="1103" d="M-20 1321q0 59 41.5 104t105.5 45q84 0 127 -61l297 -428l295 428q43 61 127 61q66 0 96.5 -32.5t40.5 -57t10 -59.5q0 -51 -28 -92l-387 -545v-547q0 -63 -39 -106t-115 -43t-116 41.5t-40 107.5v547l-387 545q-29 41 -28 92zM291 1690q0 49 55 82l19 8l241 98 q49 20 78 20q23 0 41 -10t39 -30q33 -45 33 -86q0 -92 -84 -121l-234 -90l-47 -21l-35 -2q-43 0 -66.5 35t-31.5 61.5t-8 55.5z" />
<glyph unicode="&#xde;" horiz-adv-x="1144" d="M92 147v1164q0 76 42 117.5t112 41.5q66 0 109.5 -40.5t43.5 -118.5v-58h217q225 0 375 -137t150 -352q0 -219 -148.5 -352t-363.5 -133h-230v-132q0 -76 -42 -117.5t-111 -41.5q-66 0 -110 40.5t-44 118.5zM399 549h211q94 0 152.5 60.5t58.5 156.5q0 92 -58 154.5 t-153 62.5h-211v-434z" />
<glyph unicode="&#xdf;" horiz-adv-x="1144" d="M80 152v905q0 227 126 373.5t349 146.5q188 0 315 -119t127 -303q0 -86 -34.5 -168t-104.5 -121q125 -37 189.5 -150.5t64.5 -250.5q0 -186 -126 -338t-322 -152q-86 0 -134 43q-47 39 -47 105t44 91.5t119 39.5t123 73.5t48 137.5q0 182 -173 229t-173 148q0 86 122 133 t122 180q0 59 -46 105.5t-114 46.5q-106 0 -143 -68t-37 -182v-905q0 -72 -40 -118t-108 -46t-107.5 46t-39.5 118z" />
<glyph unicode="&#xe0;" d="M41 543q0 244 141.5 407.5t347.5 163.5q86 0 160 -33.5t121 -101.5q6 53 47 88t94 35q92 0 117 -54.5t25 -138.5v-729q0 -84 -23.5 -138t-118.5 -54q-59 0 -92 31.5t-49 93.5q-113 -137 -281 -138q-211 0 -350 159t-139 409zM326 1456q0 47 33.5 87t76.5 40q27 0 76 -20 l246 -99l14 -8q59 -31 59 -82q0 -27 -8 -52.5t-22 -49.5q-35 -47 -78 -47q-35 0 -47 6l-35 14l-231 90q-84 31 -84 121zM336 543q0 -117 60 -207t175 -90q109 0 168.5 90t59.5 207q0 115 -59.5 208t-168.5 93q-115 0 -175 -91t-60 -210z" />
<glyph unicode="&#xe1;" d="M41 543q0 244 141.5 407.5t347.5 163.5q86 0 160 -33.5t121 -101.5q6 53 47 88t94 35q92 0 117 -54.5t25 -138.5v-729q0 -84 -23.5 -138t-118.5 -54q-59 0 -92 31.5t-49 93.5q-113 -137 -281 -138q-211 0 -350 159t-139 409zM326 1374q0 53 57 82l16 8l242 99 q53 20 80 20q41 0 78 -41q33 -45 32 -86q0 -90 -83 -121l-232 -90l-47 -18l-37 -2q-43 0 -74.5 46t-31.5 103zM336 543q0 -117 60 -207t175 -90q109 0 168.5 90t59.5 207q0 115 -59.5 208t-168.5 93q-115 0 -175 -91t-60 -210z" />
<glyph unicode="&#xe2;" d="M41 543q0 244 141.5 407.5t347.5 163.5q86 0 160 -33.5t121 -101.5q6 53 47 88t94 35q92 0 117 -54.5t25 -138.5v-729q0 -84 -23.5 -138t-118.5 -54q-59 0 -92 31.5t-49 93.5q-113 -137 -281 -138q-211 0 -350 159t-139 409zM264 1352q0 90 96 125l220 88l217 -88 q47 -18 71 -47q23 -33 23 -78q0 -49 -39 -90t-86 -41l-37 8l-70 28l-79 35l-82 -35l-62 -24q-29 -12 -47 -12q-41 0 -86 41q-39 43 -39 90zM336 543q0 -117 60 -207t175 -90q109 0 168.5 90t59.5 207q0 115 -59.5 208t-168.5 93q-115 0 -175 -91t-60 -210z" />
<glyph unicode="&#xe3;" d="M41 543q0 244 141.5 407.5t347.5 163.5q86 0 160 -33.5t121 -101.5q6 53 47 88t94 35q92 0 117 -54.5t25 -138.5v-729q0 -84 -23.5 -138t-118.5 -54q-59 0 -92 31.5t-49 93.5q-113 -137 -281 -138q-211 0 -350 159t-139 409zM238 1346q0 82 55 131t137 49q53 0 139 -25 q78 -27 95 -26q18 0 73 30q63 29 86 29q45 0 72 -33q25 -39 25 -82q0 -74 -64.5 -126t-136.5 -52q-39 0 -131 27l-103 24q-25 0 -67.5 -26.5t-77.5 -26.5q-39 0 -70.5 34t-31.5 73zM336 543q0 -117 60 -207t175 -90q109 0 168.5 90t59.5 207q0 115 -59.5 208t-168.5 93 q-115 0 -175 -91t-60 -210z" />
<glyph unicode="&#xe4;" d="M41 543q0 244 141.5 407.5t347.5 163.5q86 0 160 -33.5t121 -101.5q6 53 47 88t94 35q92 0 117 -54.5t25 -138.5v-729q0 -84 -23.5 -138t-118.5 -54q-59 0 -92 31.5t-49 93.5q-113 -137 -281 -138q-211 0 -350 159t-139 409zM205 1382q0 37 8 58.5t43 55.5t94 34 t104.5 -43t45.5 -105q0 -61 -45 -104t-105 -43q-59 0 -102 42t-43 105zM336 543q0 -117 60 -207t175 -90q109 0 168.5 90t59.5 207q0 115 -59.5 208t-168.5 93q-115 0 -175 -91t-60 -210zM657 1382q0 61 42.5 104.5t105.5 43.5q61 0 103 -42t42 -106q0 -63 -42 -105 t-103 -42q-63 0 -105.5 43t-42.5 104z" />
<glyph unicode="&#xe5;" d="M41 543q0 244 141.5 407.5t347.5 163.5q86 0 160 -33.5t121 -101.5q6 53 47 88t94 35q92 0 117 -54.5t25 -138.5v-729q0 -84 -23.5 -138t-118.5 -54q-59 0 -92 31.5t-49 93.5q-113 -137 -281 -138q-211 0 -350 159t-139 409zM336 543q0 -117 60 -207t175 -90 q109 0 168.5 90t59.5 207q0 115 -59.5 208t-168.5 93q-115 0 -175 -91t-60 -210zM375 1389q0 82 58.5 142t146.5 60q84 0 143 -59t59 -143t-59 -143.5t-143 -59.5q-88 0 -146.5 60.5t-58.5 142.5zM485 1389q0 -39 28 -66t67 -27t65.5 27t26.5 66t-27 65.5t-65 26.5 q-39 0 -67 -27t-28 -65z" />
<glyph unicode="&#xe6;" horiz-adv-x="1867" d="M41 543q0 244 141.5 407.5t347.5 163.5q182 0 285 -135q0 55 36 89t85 34q47 0 74.5 -20.5t36.5 -61.5q53 47 118.5 70.5t139.5 23.5q217 0 376.5 -159.5t159.5 -376.5q0 -132 -129 -132h-631q16 -102 94 -157.5t187 -55.5q82 0 192.5 59.5t141.5 59.5q47 0 84 -40 t37 -87q0 -94 -157 -172t-327 -78q-86 0 -154.5 19.5t-131.5 66.5q-12 -35 -36 -54t-75 -19q-63 0 -94 33.5t-31 91.5q-113 -137 -281 -138q-211 0 -350 159t-139 409zM336 543q0 -117 60 -207t175 -90q109 0 168.5 90t59.5 207q0 115 -59.5 208t-168.5 93q-115 0 -175 -91 t-60 -210zM1077 643h469q-16 102 -75.5 163.5t-159.5 61.5q-94 0 -159 -64.5t-75 -160.5z" />
<glyph unicode="&#xe7;" horiz-adv-x="952" d="M41 543q0 231 151.5 401t378.5 170q125 0 243 -45t118 -141q0 -49 -32 -95.5t-81 -46.5q-27 0 -112.5 29t-120.5 29q-121 0 -185.5 -89t-64.5 -212q0 -117 66.5 -207t183.5 -90q41 0 96 20l123 41q53 0 90 -37t37 -92q0 -98 -86 -135t-138.5 -51.5t-93.5 -14.5l-63 -81 l45 6q63 0 107.5 -42t44.5 -114q0 -92 -70 -142t-158 -50q-68 0 -126 21.5t-58 80.5q0 53 49 53l41 -10l55 -10q33 0 52.5 12t19.5 45q0 37 -19.5 47t-54.5 10l-55 11q-14 4 -14 36q0 10 14 35l31 47l37 48q-180 25 -315.5 175t-135.5 388z" />
<glyph unicode="&#xe8;" horiz-adv-x="1105" d="M20 543q0 231 152 401t379 170q229 0 379.5 -169t150.5 -367q0 -132 -129 -132h-630q16 -106 93 -159.5t187 -53.5q70 0 201 60l133 59q47 0 84 -40t37 -87q0 -94 -157 -172t-325 -78q-248 0 -401.5 160t-153.5 408zM291 1456q0 51 33 86q31 41 77 41q27 0 76 -20 l246 -99l14 -8q59 -31 60 -82q0 -27 -8.5 -52.5t-22.5 -49.5q-35 -47 -80 -47q-35 0 -45 6l-37 14l-229 90q-84 31 -84 121zM315 643h471q-12 100 -72.5 162.5t-162.5 62.5q-96 0 -161 -64.5t-75 -160.5z" />
<glyph unicode="&#xe9;" horiz-adv-x="1105" d="M20 543q0 231 152 401t379 170q229 0 379.5 -169t150.5 -367q0 -132 -129 -132h-630q16 -106 93 -159.5t187 -53.5q70 0 201 60l133 59q47 0 84 -40t37 -87q0 -94 -157 -172t-325 -78q-248 0 -401.5 160t-153.5 408zM291 1374q0 53 55 82l19 8l241 99q49 20 78 20 q43 0 80 -41q33 -45 33 -86q0 -90 -84 -121l-234 -90l-47 -18l-35 -2q-45 0 -73 47q-33 41 -33 102zM315 643h471q-12 100 -72.5 162.5t-162.5 62.5q-96 0 -161 -64.5t-75 -160.5z" />
<glyph unicode="&#xea;" horiz-adv-x="1105" d="M20 543q0 231 152 401t379 170q229 0 379.5 -169t150.5 -367q0 -132 -129 -132h-630q16 -106 93 -159.5t187 -53.5q70 0 201 60l133 59q47 0 84 -40t37 -87q0 -94 -157 -172t-325 -78q-248 0 -401.5 160t-153.5 408zM229 1352q1 92 97 125l219 88l217 -88q41 -16 72 -47 q23 -33 22 -78q0 -51 -38 -91t-89 -40l-35 8l-69 28l-80 35l-82 -35l-60 -24q-31 -12 -47 -12q-45 0 -86 41t-41 90zM315 643h471q-12 100 -72.5 162.5t-162.5 62.5q-96 0 -161 -64.5t-75 -160.5z" />
<glyph unicode="&#xeb;" horiz-adv-x="1105" d="M20 543q0 231 152 401t379 170q229 0 379.5 -169t150.5 -367q0 -132 -129 -132h-630q16 -106 93 -159.5t187 -53.5q70 0 201 60l133 59q47 0 84 -40t37 -87q0 -94 -157 -172t-325 -78q-248 0 -401.5 160t-153.5 408zM170 1382q0 61 43 104.5t102 43.5t104.5 -43 t45.5 -105q0 -61 -45 -104t-105 -43q-59 0 -102 43t-43 104zM315 643h471q-12 100 -72.5 162.5t-162.5 62.5q-96 0 -161 -64.5t-75 -160.5zM623 1382q0 61 42 104.5t105 43.5q61 0 104.5 -45t43.5 -103q0 -57 -43.5 -102t-104.5 -45q-63 0 -105 43t-42 104z" />
<glyph unicode="&#xec;" horiz-adv-x="456" d="M-166 1456q0 47 34 87t77 40q29 0 78 -20l241 -99l19 -8q57 -31 57 -82q0 -55 -31 -102q-35 -47 -80 -47q-35 0 -47 6l-35 14l-229 90q-84 31 -84 121zM80 152v786q0 72 40 118t107 46q68 0 108 -46t40 -118v-786q0 -72 -40 -118t-108 -46t-107.5 46t-39.5 118z" />
<glyph unicode="&#xed;" horiz-adv-x="456" d="M80 152v786q0 72 40 118t107 46q68 0 108 -46t40 -118v-786q0 -72 -40 -118t-108 -46t-107.5 46t-39.5 118zM80 1374q0 51 57 82l17 8l241 99q49 20 78 20q45 0 79 -41t34 -86q0 -90 -86 -121l-230 -90l-47 -18l-35 -2q-45 0 -76.5 46t-31.5 103z" />
<glyph unicode="&#xee;" horiz-adv-x="456" d="M-90 1352q0 90 94 125l217 88l219 -88q47 -18 72 -47q23 -33 23 -78q0 -49 -39 -90t-86 -41q-16 0 -33 8l-76 28l-80 35l-80 -35l-59 -24q-31 -12 -47 -12q-45 0 -85 39.5t-40 91.5zM80 152v786q0 72 40 118t107 46q68 0 108 -46t40 -118v-786q0 -72 -40 -118t-108 -46 t-107.5 46t-39.5 118z" />
<glyph unicode="&#xef;" horiz-adv-x="456" d="M-141 1382q0 57 43 102.5t106 45.5q61 0 103.5 -43t42.5 -105q0 -61 -42 -104t-104 -43q-63 0 -106 45t-43 102zM80 152v786q0 72 40 118t107 46q68 0 108 -46t40 -118v-786q0 -72 -40 -118t-108 -46t-107.5 46t-39.5 118zM311 1382q0 61 45.5 104.5t102.5 43.5 q59 0 106 -43q43 -47 43 -105q0 -57 -43 -104q-47 -43 -106 -43q-57 0 -102.5 43t-45.5 104z" />
<glyph unicode="&#xf0;" horiz-adv-x="1144" d="M41 543q0 201 143.5 362.5t354.5 161.5q72 0 130 -19.5t101 -68.5l4 4q-39 88 -96 158q-61 68 -133 110l-137 -71l-80 -41q-31 -14 -58 -15q-27 0 -49 18.5t-22 55.5t18 55l62 37l102 53q-41 16 -62.5 27.5t-51 30t-29.5 61.5q0 127 159 127q61 0 122 -23.5t147 -72.5 l163 88l43 18l31 5q31 0 51.5 -20.5t20.5 -57.5q0 -29 -16.5 -45.5t-65.5 -42.5l-107 -58q172 -162 243 -348t71 -440q0 -268 -146.5 -442.5t-382.5 -174.5t-383 165t-147 403zM336 543q0 -117 60.5 -207t174.5 -90q113 0 173.5 90t60.5 207q0 113 -64.5 189.5t-171.5 76.5 q-104 0 -168.5 -83t-64.5 -183z" />
<glyph unicode="&#xf1;" horiz-adv-x="1144" d="M84 152v786q0 72 40 118t107 46q119 0 136 -109q43 61 112 92q74 29 174 29q178 0 291 -106.5t113 -290.5v-565q0 -72 -40 -118t-108 -46t-107.5 46t-39.5 118v514q0 98 -53.5 150t-139.5 52q-90 0 -140 -56t-50 -146v-514q0 -72 -40 -118t-108 -46t-107.5 46t-39.5 118z M238 1346q0 82 55 131t137 49q53 0 139 -25q78 -27 95 -26q18 0 73 30q63 29 86 29q45 0 72 -33q25 -39 25 -82q0 -74 -64.5 -126t-136.5 -52q-39 0 -131 27l-103 24q-25 0 -67.5 -26.5t-77.5 -26.5q-39 0 -70.5 34t-31.5 73z" />
<glyph unicode="&#xf2;" horiz-adv-x="1144" d="M41 543q0 231 151.5 401t378.5 170q229 0 379 -167.5t150 -403.5q0 -238 -147.5 -403t-381.5 -165q-236 0 -383 165t-147 403zM326 1456q0 47 33.5 87t76.5 40q27 0 76 -20l246 -99l14 -8q59 -31 59 -82q0 -27 -8 -52.5t-22 -49.5q-35 -47 -78 -47q-35 0 -47 6l-35 14 l-231 90q-84 31 -84 121zM336 543q0 -117 60.5 -207t174.5 -90q113 0 173.5 90t60.5 207t-60.5 209t-173.5 92q-115 0 -175 -91t-60 -210z" />
<glyph unicode="&#xf3;" horiz-adv-x="1144" d="M41 543q0 231 151.5 401t378.5 170q229 0 379 -167.5t150 -403.5q0 -238 -147.5 -403t-381.5 -165q-236 0 -383 165t-147 403zM326 1374q0 53 57 82l16 8l242 99q53 20 80 20q41 0 78 -41q33 -45 32 -86q0 -90 -83 -121l-232 -90l-47 -18l-37 -2q-43 0 -74.5 46 t-31.5 103zM336 543q0 -117 60.5 -207t174.5 -90q113 0 173.5 90t60.5 207t-60.5 209t-173.5 92q-115 0 -175 -91t-60 -210z" />
<glyph unicode="&#xf4;" horiz-adv-x="1144" d="M41 543q0 231 151.5 401t378.5 170q229 0 379 -167.5t150 -403.5q0 -238 -147.5 -403t-381.5 -165q-236 0 -383 165t-147 403zM264 1352q0 90 96 125l220 88l217 -88q47 -18 71 -47q23 -33 23 -78q0 -49 -39 -90t-86 -41l-37 8l-70 28l-79 35l-82 -35l-62 -24 q-29 -12 -47 -12q-41 0 -86 41q-39 43 -39 90zM336 543q0 -117 60.5 -207t174.5 -90q113 0 173.5 90t60.5 207t-60.5 209t-173.5 92q-115 0 -175 -91t-60 -210z" />
<glyph unicode="&#xf5;" horiz-adv-x="1144" d="M41 543q0 231 151.5 401t378.5 170q229 0 379 -167.5t150 -403.5q0 -238 -147.5 -403t-381.5 -165q-236 0 -383 165t-147 403zM238 1346q0 82 55 131t137 49q53 0 139 -25q78 -27 95 -26q18 0 73 30q63 29 86 29q45 0 72 -33q25 -39 25 -82q0 -74 -64.5 -126t-136.5 -52 q-39 0 -131 27l-103 24q-25 0 -67.5 -26.5t-77.5 -26.5q-39 0 -70.5 34t-31.5 73zM336 543q0 -117 60.5 -207t174.5 -90q113 0 173.5 90t60.5 207t-60.5 209t-173.5 92q-115 0 -175 -91t-60 -210z" />
<glyph unicode="&#xf6;" horiz-adv-x="1144" d="M41 543q0 231 151.5 401t378.5 170q229 0 379 -167.5t150 -403.5q0 -238 -147.5 -403t-381.5 -165q-236 0 -383 165t-147 403zM205 1382q0 37 8 58.5t43 55.5t94 34t104.5 -43t45.5 -105q0 -61 -45 -104t-105 -43q-59 0 -102 42t-43 105zM336 543q0 -117 60.5 -207 t174.5 -90q113 0 173.5 90t60.5 207t-60.5 209t-173.5 92q-115 0 -175 -91t-60 -210zM657 1382q0 61 42.5 104.5t105.5 43.5q61 0 103 -42t42 -106q0 -63 -42 -105t-103 -42q-63 0 -105.5 43t-42.5 104z" />
<glyph unicode="&#xf7;" horiz-adv-x="1234" d="M72 518q0 55 34 89t89 34h841q57 0 90 -33t33 -90q0 -55 -33.5 -89t-89.5 -34h-841q-57 0 -90 33t-33 90zM455 94q0 66 49 113t112 47q66 0 113 -47t47 -113t-47 -113t-113 -47q-63 0 -112 47.5t-49 112.5zM455 942q0 66 49 113t112 47q66 0 113 -47t47 -113t-47 -113 t-113 -47q-63 0 -112 47.5t-49 112.5z" />
<glyph unicode="&#xf8;" horiz-adv-x="1144" d="M10 39q1 35 21 55l108 113q-98 145 -98 336q0 231 151.5 401t378.5 170q96 0 177 -29q80 -33 149 -92l94 99q29 31 56 30q35 0 59 -24.5t24 -59.5t-20 -55l-106 -111q96 -152 96 -329q0 -238 -147.5 -403t-381.5 -165q-190 0 -323 111l-103 -106q-25 -25 -51 -25 q-35 0 -59.5 24.5t-24.5 59.5zM336 543q0 -60 18 -113l353 365q-53 49 -136 49q-115 0 -175 -91t-60 -210zM442 291q51 -45 129 -45q113 0 173.5 90t60.5 207l-2 53l-12 55z" />
<glyph unicode="&#xf9;" horiz-adv-x="1144" d="M84 406v532q0 72 40 118t107 46q68 0 108 -46t40 -118v-526q0 -86 54 -138.5t138 -52.5q76 0 133.5 51.5t57.5 139.5v526q0 72 40 118t107 46q68 0 108 -46t40 -118v-532q0 -201 -127 -316t-359 -115q-231 0 -359 116t-128 315zM326 1456q0 47 33.5 87t76.5 40 q27 0 76 -20l246 -99l14 -8q59 -31 59 -82q0 -27 -8 -52.5t-22 -49.5q-35 -47 -78 -47q-35 0 -47 6l-35 14l-231 90q-84 31 -84 121z" />
<glyph unicode="&#xfa;" horiz-adv-x="1144" d="M84 406v532q0 72 40 118t107 46q68 0 108 -46t40 -118v-526q0 -86 54 -138.5t138 -52.5q76 0 133.5 51.5t57.5 139.5v526q0 72 40 118t107 46q68 0 108 -46t40 -118v-532q0 -201 -127 -316t-359 -115q-231 0 -359 116t-128 315zM326 1374q0 53 57 82l16 8l242 99 q53 20 80 20q41 0 78 -41q33 -45 32 -86q0 -90 -83 -121l-232 -90l-47 -18l-37 -2q-43 0 -74.5 46t-31.5 103z" />
<glyph unicode="&#xfb;" horiz-adv-x="1144" d="M84 406v532q0 72 40 118t107 46q68 0 108 -46t40 -118v-526q0 -86 54 -138.5t138 -52.5q76 0 133.5 51.5t57.5 139.5v526q0 72 40 118t107 46q68 0 108 -46t40 -118v-532q0 -201 -127 -316t-359 -115q-231 0 -359 116t-128 315zM264 1352q0 90 96 125l220 88l217 -88 q47 -18 71 -47q23 -33 23 -78q0 -49 -39 -90t-86 -41l-37 8l-70 28l-79 35l-82 -35l-62 -24q-29 -12 -47 -12q-41 0 -86 41q-39 43 -39 90z" />
<glyph unicode="&#xfc;" horiz-adv-x="1144" d="M84 406v532q0 72 40 118t107 46q68 0 108 -46t40 -118v-526q0 -86 54 -138.5t138 -52.5q76 0 133.5 51.5t57.5 139.5v526q0 72 40 118t107 46q68 0 108 -46t40 -118v-532q0 -201 -127 -316t-359 -115q-231 0 -359 116t-128 315zM205 1382q0 37 8 58.5t43 55.5t94 34 t104.5 -43t45.5 -105q0 -61 -45 -104t-105 -43q-59 0 -102 42t-43 105zM657 1382q0 61 42.5 104.5t105.5 43.5q61 0 103 -42t42 -106q0 -63 -42 -105t-103 -42q-63 0 -105.5 43t-42.5 104z" />
<glyph unicode="&#xfd;" horiz-adv-x="989" d="M-4 975q0 53 46 90t93 37q106 0 148 -105l202 -555l220 555q41 104 147 105q47 0 93 -37t46 -90q0 -47 -14 -76l-496 -1229q-23 -53 -55.5 -84.5t-83.5 -31.5q-74 0 -114 37.5t-40 89.5q0 39 19 86l129 319l-326 813l-10 37zM256 1374q0 53 55 82l19 8l241 99 q49 20 78 20q43 0 78 -43t35 -84q0 -88 -84 -121l-234 -90l-47 -18l-35 -2q-45 0 -73 47q-33 41 -33 102z" />
<glyph unicode="&#xfe;" d="M84 -283v1696q0 72 40 118t107 46q68 0 108 -46t40 -118v-434q39 63 115 100q82 35 157 35q215 0 350.5 -168t135.5 -387q0 -225 -129 -404.5t-346 -179.5q-162 0 -283 103v-361q0 -72 -40 -117.5t-108 -45.5t-107.5 45.5t-39.5 117.5zM379 537q0 -117 59 -204t174 -87 q106 0 168 92t62 209t-59.5 207t-170.5 90q-115 0 -174 -93.5t-59 -213.5z" />
<glyph unicode="&#xff;" horiz-adv-x="989" d="M-4 975q0 53 46 90t93 37q106 0 148 -105l202 -555l220 555q41 104 147 105q47 0 93 -37t46 -90q0 -47 -14 -76l-496 -1229q-23 -53 -55.5 -84.5t-83.5 -31.5q-74 0 -114 37.5t-40 89.5q0 39 19 86l129 319l-326 813l-10 37zM133 1382q0 57 43 105q48 43 107 43t102 -42 t43 -106q0 -37 -8 -58t-43 -55t-94 -34t-107 43q-43 47 -43 104zM588 1382q0 37 8 58.5t42 55.5t95 34q63 0 106.5 -45t43.5 -103q0 -57 -43 -102t-107 -45q-61 0 -103 42t-42 105z" />
<glyph unicode="&#x152;" horiz-adv-x="1982" d="M35 729q0 324 196.5 539t509.5 215q115 0 217.5 -37t182.5 -117l4 4q0 80 28.5 102.5t118.5 22.5h496q68 0 108 -41q37 -43 37 -100t-40 -99t-105 -42h-367v-299h342q70 0 110 -40t40 -102q0 -59 -40 -100t-110 -41h-342v-311h385q68 0 109 -41q37 -43 37 -101 q0 -57 -40 -99t-106 -42h-571q-59 0 -75.5 28.5t-16.5 88.5q-66 -80 -172.5 -111t-229.5 -31q-311 0 -508.5 215.5t-197.5 538.5zM354 729q0 -203 101.5 -337t285.5 -134t284.5 135t100.5 336q0 197 -100 334t-285 137q-182 0 -284.5 -134t-102.5 -337z" />
<glyph unicode="&#x153;" horiz-adv-x="1867" d="M41 543q0 231 151.5 401t378.5 170q119 0 212.5 -45t168.5 -121q59 76 148.5 121t204.5 45q217 0 376.5 -159.5t159.5 -376.5q0 -132 -129 -132h-631q16 -102 94 -157.5t187 -55.5q82 0 192.5 59.5t141.5 59.5q47 0 84 -40t37 -87q0 -94 -157 -172t-327 -78 q-133 0 -225 45q-100 43 -166 125q-61 -78 -154.5 -124t-216.5 -46q-236 0 -383 165t-147 403zM336 543q0 -117 60 -207t175 -90q113 0 173.5 90t60.5 207t-60.5 209t-173.5 92q-115 0 -175 -91t-60 -210zM1075 643h471q-16 102 -75.5 163.5t-159.5 61.5q-94 0 -159 -64.5 t-77 -160.5z" />
<glyph unicode="&#x178;" horiz-adv-x="1103" d="M-20 1321q0 59 41.5 104t105.5 45q84 0 127 -61l297 -428l295 428q43 61 127 61q66 0 96.5 -32.5t40.5 -57t10 -59.5q0 -51 -28 -92l-387 -545v-547q0 -63 -39 -106t-115 -43t-116 41.5t-40 107.5v547l-387 545q-29 41 -28 92zM170 1698q0 61 42 103t103 42q37 0 58.5 -8 t56.5 -42t35 -95t-46 -105.5t-104 -44.5q-57 0 -101 44t-44 106zM623 1698q0 61 43 102q36 43 104 43q37 0 58.5 -8t55.5 -43t34 -94q0 -57 -44.5 -103.5t-103.5 -46.5q-63 0 -105 44t-42 106z" />
<glyph unicode="&#x2c6;" horiz-adv-x="456" d="M-84 1352q0 92 94 125l217 88l217 -88q45 -18 74 -47q23 -33 23 -78q0 -51 -40 -91t-87 -40q-16 0 -35 8l-72 28l-80 35l-80 -35l-59 -24q-31 -12 -47 -12q-45 0 -85 39.5t-40 91.5z" />
<glyph unicode="&#x2dc;" horiz-adv-x="456" d="M-113 1346q0 82 55.5 131t139.5 49q51 0 135 -25q78 -27 94 -26q16 0 77 29.5t83 29.5q47 0 72.5 -34t25.5 -81q0 -74 -64.5 -126t-137.5 -52q-39 0 -131 27l-101 24q-25 0 -65.5 -26.5t-79.5 -26.5t-71 34t-32 73z" />
<glyph unicode="&#x2000;" horiz-adv-x="965" />
<glyph unicode="&#x2001;" horiz-adv-x="1931" />
<glyph unicode="&#x2002;" horiz-adv-x="965" />
<glyph unicode="&#x2003;" horiz-adv-x="1931" />
<glyph unicode="&#x2004;" horiz-adv-x="643" />
<glyph unicode="&#x2005;" horiz-adv-x="482" />
<glyph unicode="&#x2006;" horiz-adv-x="321" />
<glyph unicode="&#x2007;" horiz-adv-x="321" />
<glyph unicode="&#x2008;" horiz-adv-x="241" />
<glyph unicode="&#x2009;" horiz-adv-x="386" />
<glyph unicode="&#x200a;" horiz-adv-x="107" />
<glyph unicode="&#x2010;" horiz-adv-x="800" d="M63 592q0 57 31 94t86 37h438q55 0 86 -37t31 -94t-29.5 -92t-87.5 -35h-438q-53 0 -84 37q-33 33 -33 90z" />
<glyph unicode="&#x2011;" horiz-adv-x="800" d="M63 592q0 57 31 94t86 37h438q55 0 86 -37t31 -94t-29.5 -92t-87.5 -35h-438q-53 0 -84 37q-33 33 -33 90z" />
<glyph unicode="&#x2012;" horiz-adv-x="800" d="M63 592q0 57 31 94t86 37h438q55 0 86 -37t31 -94t-29.5 -92t-87.5 -35h-438q-53 0 -84 37q-33 33 -33 90z" />
<glyph unicode="&#x2013;" horiz-adv-x="1028" d="M0 594q0 55 34 89t89 34h780q57 0 90 -33t33 -90q0 -55 -34 -89t-89 -34h-780q-57 0 -90 33t-33 90z" />
<glyph unicode="&#x2014;" horiz-adv-x="2058" d="M-123 594q0 55 34 89t89 34h2052q57 0 90 -33t33 -90q0 -55 -34 -89t-89 -34h-2052q-57 0 -90 33t-33 90z" />
<glyph unicode="&#x2018;" horiz-adv-x="493" d="M18 1024l5 33l20 49l170 307q14 29 53 49.5t66 20.5q59 0 100 -40t41 -95l-2 -27l-25 -55l-172 -308q-14 -31 -53 -49q-35 -20 -63 -20q-55 0 -97.5 41t-42.5 94z" />
<glyph unicode="&#x2019;" horiz-adv-x="493" d="M18 1024l5 33l20 49l170 307q14 29 53 49.5t66 20.5q59 0 100 -40t41 -95l-2 -27l-25 -55l-172 -308q-14 -31 -53 -49q-35 -20 -63 -20q-55 0 -97.5 41t-42.5 94z" />
<glyph unicode="&#x201a;" horiz-adv-x="493" d="M18 -139l5 33l20 49l170 307q14 29 53 49t66 20q59 0 100 -39.5t41 -95.5l-2 -26l-25 -56l-172 -307q-14 -31 -53 -49q-35 -20 -63 -20q-55 0 -97.5 40.5t-42.5 94.5z" />
<glyph unicode="&#x201c;" horiz-adv-x="913" d="M18 1024l5 33l20 49l170 307q14 29 53 49.5t66 20.5q59 0 100 -40t41 -95l-2 -27l-25 -55l-172 -308q-14 -31 -53 -49q-35 -20 -63 -20q-55 0 -97.5 41t-42.5 94zM436 1024l4 33l21 49l172 307q14 29 53 49.5t66 20.5q59 0 100 -40t41 -95l-2 -27l-25 -55l-172 -308 q-14 -31 -53 -49q-35 -20 -63 -20q-57 0 -99.5 41t-42.5 94z" />
<glyph unicode="&#x201d;" horiz-adv-x="913" d="M18 1024l5 33l20 49l170 307q14 29 53 49.5t66 20.5q59 0 100 -40t41 -95l-2 -27l-25 -55l-172 -308q-14 -31 -53 -49q-35 -20 -63 -20q-55 0 -97.5 41t-42.5 94zM436 1024l4 33l21 49l172 307q14 29 53 49.5t66 20.5q59 0 100 -40t41 -95l-2 -27l-25 -55l-172 -308 q-14 -31 -53 -49q-35 -20 -63 -20q-57 0 -99.5 41t-42.5 94z" />
<glyph unicode="&#x201e;" horiz-adv-x="913" d="M18 -139l5 33l20 49l170 307q14 29 53 49t66 20q59 0 100 -39.5t41 -95.5l-2 -26l-25 -56l-172 -307q-14 -31 -53 -49q-35 -20 -63 -20q-55 0 -97.5 40.5t-42.5 94.5zM436 -139l4 33l21 49l172 307q14 29 53 49t66 20q59 0 100 -39.5t41 -95.5l-2 -26l-25 -56l-172 -307 q-14 -31 -53 -49q-35 -20 -63 -20q-57 0 -99.5 40.5t-42.5 94.5z" />
<glyph unicode="&#x2022;" horiz-adv-x="1028" d="M147 729q0 152 106.5 258.5t258.5 106.5q154 0 260.5 -106.5t106.5 -258.5t-106.5 -258t-260.5 -106q-152 0 -258.5 106.5t-106.5 257.5z" />
<glyph unicode="&#x2026;" horiz-adv-x="2058" d="M182 135q0 66 47 113t113 47t113 -47t47 -113t-47 -113t-113 -47t-113 47.5t-47 112.5zM866 135q0 66 47 113t113 47t113 -47t47 -113t-47 -113t-113 -47t-113 47.5t-47 112.5zM1550 135q0 66 47 113t113 47t113 -47t47 -113t-47 -113t-113 -47t-113 47.5t-47 112.5z" />
<glyph unicode="&#x202f;" horiz-adv-x="386" />
<glyph unicode="&#x2039;" horiz-adv-x="610" d="M76 584q0 29 14 55l35 59l199 281q31 35 88 35q53 0 86.5 -33t33.5 -80l-4 -39q-2 -20 -20 -39l-162 -248l162 -243q16 -16 20 -35l4 -35q0 -57 -34.5 -93t-89.5 -36q-70 0 -103 51l-211 326q-10 16 -14 37z" />
<glyph unicode="&#x203a;" horiz-adv-x="610" d="M76 246l4 41q4 19 18 37l162 247l-162 244q-14 18 -18 35l-4 35q0 57 33.5 93t89.5 36q70 0 102 -51l211 -326q16 -18 18 -37l2 -37q0 -27 -12 -55l-39 -59l-198 -281q-31 -35 -88 -35q-53 0 -86 33t-33 80z" />
<glyph unicode="&#x205f;" horiz-adv-x="482" />
<glyph unicode="&#x2122;" horiz-adv-x="2058" d="M86 1366q0 47 25.5 69.5t66.5 22.5h572q92 0 92 -92q0 -47 -25.5 -69.5t-66.5 -22.5h-162v-537q0 -55 -34 -89t-91 -34t-90 33t-33 90v537h-162q-92 0 -92 92zM961 737v606q0 59 39.5 93t134.5 34q66 0 107.5 -24.5t74.5 -102.5l145 -372l148 372q33 78 74.5 102.5 t107.5 24.5q88 0 131 -34.5t43 -92.5v-606q0 -59 -23.5 -91t-87.5 -32q-63 0 -86.5 31t-23.5 92v426l-152 -426q-12 -33 -24.5 -57.5t-29.5 -45t-77 -20.5q-55 0 -80.5 30t-48.5 93l-147 426l-4 -426q0 -59 -23.5 -91t-87.5 -32q-63 0 -86.5 31t-23.5 92z" />
<glyph unicode="&#x25fc;" horiz-adv-x="1105" d="M0 0v1106h1106v-1106h-1106z" />
</font>
</defs>
</svg>
